<?xml version="1.0" encoding="UTF-8" standalone="no"?>
<!DOCTYPE svg PUBLIC "-//W3C//DTD SVG 1.1//EN" "http://www.w3.org/Graphics/SVG/1.1/DTD/svg11.dtd">
<svg width="100%" height="100%" viewBox="0 0 677 244" version="1.1" xmlns="http://www.w3.org/2000/svg" xmlns:xlink="http://www.w3.org/1999/xlink" xml:space="preserve" xmlns:serif="http://www.serif.com/" style="fill-rule:evenodd;clip-rule:evenodd;stroke-linejoin:round;stroke-miterlimit:2;">
    <g id="Signature" transform="matrix(0.448957,0,0,0.365373,-764.886,-261.134)">
        <rect x="1703.7" y="714.705" width="1506.43" height="666.665" style="fill:none;"/>
        <clipPath id="_clip1">
            <rect x="1703.7" y="714.705" width="1506.43" height="666.665"/>
        </clipPath>
        <g clip-path="url(#_clip1)">
            <g transform="matrix(2.22738,-1.13948e-16,9.27335e-17,2.73693,1040.7,-231.718)">
                <g transform="matrix(2.31733,0,0,1.06698,-103.938,114.563)">
                    <rect x="173.301" y="216.718" width="293.724" height="227.041" style="fill:white;"/>
                </g>
                <g transform="matrix(0.941183,0.067312,-0.067312,0.941183,-1.01912,-224.435)">
                    <g transform="matrix(0.618981,0,0,0.618981,379.992,204.283)">
                        <path d="M149.868,830.902C150.208,826.12 150.507,820.87 150.507,817.196C150.507,795.7 146.251,757.404 150.1,729.912C152.005,716.303 156.083,705.158 162.599,698.642C163.984,697.256 165.872,696.34 168.006,696.159C170.081,695.982 172.374,696.622 173.96,697.679C177.4,699.973 181.27,705.212 184.801,712.464C191.273,725.756 197.839,746.553 203.936,760.435C204.93,762.698 206.297,765.174 207.448,767.134C208.519,765.4 209.75,763.274 210.671,761.289C216.157,749.46 222.018,731.554 227.073,715.991C231.855,701.269 236.029,688.543 238.5,684.029C241.158,679.17 245.001,678.354 246.729,678.354C248.451,678.354 250.494,678.839 252.49,680.586C253.546,681.511 254.985,683.335 256.343,686.194C260.646,695.251 267.54,720.383 274.262,745.54C279.393,764.747 284.464,783.955 288.254,795.538C289.284,798.685 290.632,801.946 291.176,803.231C292.77,804.643 293.775,806.705 293.775,809C293.775,813.252 290.323,816.705 286.071,816.705C284.58,816.705 282.9,816.331 281.208,815.121C280.095,814.325 278.24,812.284 276.652,808.63C272.73,799.61 266.069,774.573 259.375,749.518C254.981,733.073 250.554,716.626 246.858,704.989C245.313,709.629 243.587,715.031 241.729,720.751C235.556,739.755 228.134,762.058 221.638,773.746C219.003,778.487 216.251,781.758 213.899,783.399C211.677,784.95 209.453,785.56 207.388,785.56C204.758,785.56 201.857,784.568 199.095,781.959C196.213,779.237 192.96,773.762 189.828,766.632C184.624,754.783 179.085,737.873 173.551,724.948C172.115,721.592 170.687,718.524 169.261,715.941C166.101,722.972 164.886,732.845 164.251,743.645C162.765,768.902 165.916,799.107 165.916,817.196C165.916,826.196 164.243,844.144 164.243,844.144C163.859,848.231 160.338,851.3 156.236,851.121C152.134,850.942 148.893,847.578 148.868,843.472C148.868,843.472 148.84,836.775 149.166,833.447C149.255,832.539 149.499,831.683 149.868,830.902Z" style="fill-opacity:0.91;"/>
                    </g>
                    <g transform="matrix(0.618981,0,0,0.618981,379.992,204.283)">
                        <path d="M333.108,795.519C333.114,795.641 333.117,795.763 333.117,795.886C333.117,804.757 318.321,813.406 317.708,795.886C317.702,795.707 317.697,795.525 317.694,795.34C317.619,791.135 317.19,771.873 314.417,757.81C313.837,754.869 313.163,752.178 312.335,749.975C312.122,749.408 311.8,748.746 311.531,748.223C308.516,747.866 305.868,745.733 305.007,742.628C303.871,738.531 306.276,734.281 310.374,733.145C314.425,732.022 318.095,732.937 321.323,735.831C323.75,738.007 326.068,741.996 327.698,747.325C332.252,762.216 333.006,789.748 333.101,795.068C333.104,795.233 333.106,795.389 333.108,795.519Z" style="fill-opacity:0.91;"/>
                    </g>
                    <g transform="matrix(0.618981,0,0,0.618981,379.992,204.283)">
                        <path d="M299.665,689.471C299.471,687.651 299.836,686.071 300.362,684.779C301.488,682.011 303.841,679.919 306.889,679.048C310.348,678.058 314.588,678.936 317.276,681.375C320.027,683.869 322.354,688.094 319.19,694.422C318.725,695.351 317.479,697.022 315.473,698.565C312.806,700.619 308.498,702.861 306.908,703.241C303.691,704.009 301.479,702.875 300.301,702.046C298.451,700.744 297.26,698.917 297.017,696.396C296.934,695.533 296.709,692.792 299.665,689.471Z" style="fill-opacity:0.91;"/>
                    </g>
                    <g transform="matrix(0.618981,0,0,0.618981,379.992,204.283)">
                        <path d="M390.189,735.814C386.833,737.809 383.507,741.042 381.898,745.868C379.323,753.592 378.282,759.442 378.734,763.815C378.968,766.078 379.561,767.723 380.953,768.598C383.443,770.163 387.002,769.974 391.013,769.379C399.5,768.119 409.538,764.06 418.681,759.489C422.484,757.587 427.116,759.131 429.018,762.935C430.919,766.738 429.375,771.37 425.572,773.272C414.92,778.597 403.164,783.153 393.276,784.621C385.032,785.845 377.871,784.86 372.754,781.645C364.574,776.504 359.449,764.488 367.28,740.995C371.725,727.659 383.338,720.972 391.495,718.748C396.264,717.447 400.175,717.762 402.006,718.39C405.552,719.607 407.062,722.094 407.622,724.362C408.071,726.181 408.036,728.336 406.654,730.665C405.854,732.014 403.44,734.646 397.691,736.889C395.084,737.905 392.258,737.404 390.189,735.814Z" style="fill-opacity:0.91;"/>
                    </g>
                    <g transform="matrix(0.618981,0,0,0.618981,379.992,204.283)">
                        <path d="M437.196,664.137C438.497,667.717 440.601,673.686 441.144,676.291C443.62,688.175 443.418,707.442 445.192,724.524C445.229,724.88 445.266,725.235 445.305,725.588C445.716,724.168 446.16,722.763 446.647,721.386C450.794,709.663 457.796,699.935 471.074,696.615C475.535,695.5 479.383,695.8 482.707,697C487.477,698.721 491.336,702.423 494.099,707.738C501.515,721.998 500.318,750.601 500.318,759.823C500.318,764.076 496.865,767.528 492.613,767.528C488.361,767.528 484.908,764.076 484.908,759.823C484.908,752.836 486.142,733.218 482.324,719.821C481.715,717.685 480.982,715.735 480.022,714.115C478.879,712.184 477.284,710.946 474.811,711.564C467.085,713.496 463.587,719.703 461.174,726.525C457.911,735.75 456.621,746.273 454.024,754.064C453.525,755.561 451.963,758.046 450.63,759.16C449.351,760.23 447.999,760.758 446.835,760.981C443.782,761.565 440.871,760.85 438.665,757.54C433.783,750.217 431.177,738.747 429.865,726.117C428.148,709.587 428.454,690.933 426.058,679.434C425.3,675.792 422.021,668.786 421.146,664.858C420.541,662.142 420.755,659.947 421.19,658.575C422.025,655.937 423.702,654.282 425.842,653.337C427.516,652.598 430.11,651.991 433.615,653.633C437.466,655.438 439.127,660.029 437.323,663.879C437.282,663.966 437.24,664.052 437.196,664.137Z" style="fill-opacity:0.91;"/>
                    </g>
                    <g transform="matrix(0.618981,0,0,0.618981,379.992,204.283)">
                        <path d="M564.211,702.699C565.879,698.062 569.403,696.459 571.003,696.166C573.577,695.695 576.82,696.028 579.346,699.816C583.408,705.909 584.196,715.453 581.635,725.982C581.519,726.463 581.395,726.946 581.265,727.43C583.627,733.18 587.779,738.618 595.042,741.04C599.076,742.384 601.26,746.751 599.915,750.785C598.57,754.819 594.203,757.003 590.169,755.658C583.39,753.398 578.161,749.632 574.186,745.081C570.383,752.244 565.652,758.939 560.576,764.055C552.89,771.802 544.203,775.836 536.562,774.963C530.797,774.305 525.137,771.171 520.541,763.967C510.553,748.311 516.367,731.997 526.829,719.551C533.37,711.768 541.591,705.639 547.52,702.436C550.865,700.628 553.722,699.691 555.559,699.443C559.962,698.848 562.668,700.548 564.211,702.699ZM565.086,727.664C563.856,723.259 563.258,718.906 563.07,715.058C562.752,715.503 562.399,715.957 562.01,716.418C559.442,719.461 555.014,720.016 551.793,717.824C547.605,720.559 542.706,724.61 538.625,729.465C532.397,736.875 527.586,746.359 533.532,755.68C535.002,757.984 536.467,759.443 538.311,759.654C542.087,760.085 545.839,757.031 549.637,753.202C556.098,746.689 561.847,737.005 565.086,727.664Z" style="fill-opacity:0.91;"/>
                    </g>
                    <g transform="matrix(0.618981,0,0,0.618981,379.992,204.283)">
                        <path d="M630.016,721.713C633.277,729.356 640.737,736.048 653.486,739.235C655.263,739.679 656.73,739.151 658.131,738.483C659.894,737.642 661.575,736.543 663.306,735.518C667.691,732.921 672.326,730.809 677.845,730.809C682.098,730.809 685.55,734.261 685.55,738.513C685.55,742.766 682.098,746.218 677.845,746.218C675.62,746.218 673.807,747.254 672.022,748.273C669.992,749.432 668.026,750.71 666.002,751.772C661.14,754.32 655.99,755.744 649.749,754.184C620.742,746.932 611.221,726.532 612.796,708.439C614.278,691.408 626.072,676.304 641.753,673.493C651.993,671.658 664.34,674.77 676.737,687.167C678.821,689.251 679.754,691.523 680,693.782C680.31,696.62 679.495,699.774 676.954,702.807C673.946,706.397 667.197,710.461 659.44,713.727C648.896,718.167 636.619,721.436 632.151,721.73C631.385,721.781 630.674,721.772 630.016,721.713ZM629.005,704.898C631.261,703.844 633.813,703.978 635.896,705.09C642.179,703.349 653.197,700.043 659.622,696.64C660.513,696.169 661.504,695.532 662.399,694.918C655.964,689.595 649.881,687.692 644.472,688.661C636.772,690.041 631.156,696.856 629.005,704.898Z" style="fill-opacity:0.91;"/>
                    </g>
                    <g transform="matrix(0.618981,0,0,0.618981,379.992,204.283)">
                        <path d="M729.755,722.335C731.768,723.725 733.088,726.049 733.088,728.678C733.088,734.629 731.019,737.203 730.327,737.875C727.611,740.512 724.608,740.889 721.368,739.311C720.372,738.826 717.666,736.707 716.218,732.236C714.265,726.205 711.49,711.994 711.211,710.179C709.191,697.049 702.995,663.501 697.494,642.073C696.049,636.443 694.103,630.769 693.137,628.062C692.847,627.9 692.564,627.718 692.291,627.514C688.879,624.976 688.169,620.146 690.707,616.734C692.598,614.192 694.906,613.361 697.069,613.237C699.211,613.115 702.127,613.706 704.627,616.866C706.644,619.416 709.65,627.453 712.42,638.242C718.04,660.138 724.377,694.419 726.441,707.836C726.608,708.918 728.422,716.684 729.755,722.335ZM702.679,626.416C702.812,626.264 702.943,626.103 703.071,625.93C702.946,626.099 702.815,626.261 702.679,626.416Z" style="fill-opacity:0.91;"/>
                    </g>
                    <g transform="matrix(0.618981,0,0,0.618981,379.992,204.283)">
                        <path d="M499.662,866.166C499.264,865.708 498.798,865.199 498.378,864.807C496.413,862.976 493.934,861.069 491.315,858.998C477.657,848.199 462.311,833.621 472.459,810.789C474.569,806.04 478.14,802.987 482.008,801.067C484.923,799.621 488.795,798.749 491.009,798.334C493.255,797.098 496.068,797.007 498.473,798.342C501.965,800.281 502.454,802.981 502.619,804.412C502.862,806.527 502.374,808.604 500.689,810.495C500.061,811.199 498.714,812.485 496.169,813.068C495.301,813.266 493.362,813.435 491.152,814.031C489.556,814.462 487.439,815.024 486.54,817.047C482.199,826.815 486.51,833.777 492.086,839.354C497.077,844.345 503.06,848.437 507.358,852.165C513.407,857.413 516.325,862.914 515.877,867.746C515.457,872.282 512.032,878.195 500.66,883.249C487.627,889.042 478.592,887.647 466.218,881.46C462.415,879.559 460.871,874.927 462.773,871.123C464.674,867.32 469.306,865.776 473.11,867.678C480.767,871.507 486.335,872.753 494.402,869.168C496.515,868.228 498.476,866.979 499.662,866.166ZM490.183,811.297C490.425,811.475 490.694,811.648 490.993,811.815C490.709,811.657 490.439,811.484 490.183,811.297Z" style="fill-opacity:0.91;"/>
                    </g>
                    <g transform="matrix(0.618981,0,0,0.618981,379.992,204.283)">
                        <path d="M564.465,833.032C564.645,832.629 564.854,832.232 565.094,831.847C566.046,830.325 567.433,829.093 568.659,828.426C572.251,826.473 575.683,827.079 578.383,829.78C581.309,832.706 583.082,837.665 582.592,844.128C582.403,846.625 581.875,849.43 581.059,852.41C581.622,854.609 582.317,856.776 583.163,858.773C583.869,860.443 584.675,861.982 585.65,863.241C586.349,864.145 587.035,864.996 588.063,865.134C588.884,865.244 589.767,864.916 590.799,864.399C594.603,862.498 599.235,864.042 601.136,867.845C603.038,871.648 601.494,876.28 597.691,878.182C593.037,880.509 588.883,880.944 585.244,880.285C580.335,879.396 576.107,876.397 572.82,871.803C571.342,874.39 569.736,876.91 568.032,879.288C562.962,886.361 557.007,892.147 551.154,895.175C545.95,897.867 540.698,898.584 535.763,897.17C530.838,895.759 525.9,892.13 521.911,884.814C516.229,874.39 518.385,863.645 524.782,854.461C533.187,842.394 549.257,833.581 559.451,832.809C561.255,832.672 562.93,832.756 564.465,833.032ZM562.747,857.818C559.881,855.935 558.531,852.287 559.689,848.892C559.718,848.805 559.747,848.715 559.775,848.621C557.229,849.237 552.749,850.49 549.685,852.303C544.477,855.383 539.345,859.812 536.351,864.95C534.089,868.829 533.117,873.176 535.441,877.438C536.883,880.083 538.226,881.847 540.007,882.357C541.894,882.898 543.782,881.816 545.763,880.475C549.203,878.148 552.514,874.487 555.507,870.311C558.285,866.436 560.775,862.107 562.747,857.818Z" style="fill-opacity:0.91;"/>
                    </g>
                    <g transform="matrix(0.618981,0,0,0.618981,379.992,204.283)">
                        <path d="M630.171,831.957C632.856,839.705 636.797,850.577 640.26,858.173C640.29,858.237 640.319,858.301 640.349,858.365C643.16,851.567 646.296,842.823 648.862,834.818C651.573,826.36 653.749,818.801 653.749,815.557C653.749,811.305 657.201,807.852 661.453,807.852C665.705,807.852 669.158,811.305 669.158,815.557C669.158,825.304 654.418,867.867 648.193,877.204C645.284,881.567 637.73,884.145 631.548,874.679C624.453,863.814 612.114,828.197 611.661,824.206C611.365,821.597 612.199,819.978 612.61,819.247C614.484,815.911 617.267,814.859 620.584,815.387C621.669,815.56 623.457,815.987 625.191,817.906C625.691,818.46 627.362,821.178 629.823,827.164C630.472,828.744 630.557,830.417 630.171,831.957Z" style="fill-opacity:0.91;"/>
                    </g>
                    <g transform="matrix(0.618981,0,0,0.618981,379.992,204.283)">
                        <path d="M713.516,824.33C711.822,825.567 709.792,827.172 708.332,828.72C705.311,831.921 702.434,835.819 700.596,839.847C699.233,842.834 698.301,845.853 699.064,848.555C700.111,852.257 704.302,854.229 711.897,855.495C715.194,856.044 718.696,855.175 722.085,853.783C728.27,851.243 734.055,846.805 737.966,842.893C740.973,839.887 745.856,839.887 748.862,842.893C751.869,845.9 751.869,850.783 748.862,853.79C739.847,862.805 723.236,873.006 709.363,870.694C695.543,868.391 688.601,862.509 685.51,856.108C682.448,849.766 682.914,842.22 685.984,834.814C689.751,825.726 697.449,816.846 704.085,811.856C708.521,808.521 712.79,806.906 715.652,806.762C718.864,806.601 721.385,807.682 723.259,809.473C725.179,811.308 726.947,814.424 726.291,819.561C725.753,823.779 721.891,826.767 717.673,826.228C716.066,826.023 714.638,825.336 713.516,824.33Z" style="fill-opacity:0.91;"/>
                    </g>
                    <g transform="matrix(0.618981,0,0,0.618981,379.992,204.283)">
                        <path d="M765.549,813.453C766.406,809.478 767.486,805.713 768.85,802.575C772.507,794.16 778.298,788.265 786.162,786.692C793.972,785.13 800.635,789.721 804.486,799.482C809.878,813.151 810.131,838.655 810.131,845.063C810.131,849.315 806.679,852.768 802.426,852.768C798.174,852.768 794.722,849.315 794.722,845.063C794.722,840.169 794.741,822.754 791.705,810.21C791.181,808.047 790.57,806.048 789.82,804.341C789.477,803.56 788.826,802.571 788.44,802.013C787.081,802.515 786.038,803.576 785.123,804.842C783.344,807.302 782.12,810.516 781.163,813.972C777.651,826.657 778.017,842.386 777.634,846.434C777.096,852.112 773.014,853.77 772.061,854.074C770.484,854.576 768.855,854.596 767.173,854.015C766.24,853.693 765.196,853.152 764.194,852.15C758.481,846.437 754.261,836.099 751.696,823.515C748.375,807.225 747.451,786.958 747.22,770.364C746.281,769.581 745.515,768.564 745.022,767.353C743.76,764.25 743.655,758.324 744.54,752.857C745.416,747.451 747.187,742.613 748.02,741.389C749.74,738.862 751.897,738.18 753.248,737.936C755.342,737.558 757.304,737.959 759.111,739.222C759.96,739.817 762.594,741.726 762.594,746.71C762.594,759.466 762.002,786.556 765.025,809.663C765.192,810.939 765.366,812.204 765.549,813.453Z" style="fill-opacity:0.91;"/>
                    </g>
                    <g transform="matrix(0.618981,0,0,0.618981,379.992,204.283)">
                        <path d="M828.994,787.132C828.931,786.926 828.876,786.716 828.83,786.502C827.931,782.345 830.575,778.241 834.731,777.342C836.549,776.949 843.767,777.28 844.381,785.452C844.698,789.666 843.651,804.606 844.659,817.305C844.952,820.993 845.414,824.469 846.214,827.304C846.556,828.515 847.395,830.198 847.52,830.446C848.371,831.08 849.08,831.55 849.837,831.436C850.841,831.285 851.626,830.469 852.481,829.564C853.933,828.024 855.242,826.008 856.475,823.723C860.534,816.196 863.579,806.035 865.604,797.292C865.503,796.765 865.411,796.243 865.325,795.727C863.964,787.47 864.876,780.586 866.925,777.168C869.087,773.565 872.246,771.789 876.192,771.789C878.469,771.789 882.304,772.464 883.689,777.562C883.893,778.31 884.021,782.392 883.053,788.337C882.649,790.824 882.104,793.766 881.421,796.973C881.686,798.425 882.011,799.86 882.409,801.182C884.792,809.077 888.655,817.426 893.713,822.097C895.158,823.432 896.619,824.512 898.303,824.546C900.025,824.581 901.659,823.452 903.528,821.584C906.535,818.577 911.417,818.577 914.424,821.584C917.431,824.59 917.431,829.473 914.424,832.48C909.224,837.68 903.997,839.733 899.167,839.939C894.126,840.154 889.26,838.343 884.854,834.795C880.943,831.647 877.38,826.901 874.373,821.471C871.249,829.553 867.29,836.672 862.831,841.01C859.356,844.39 855.488,846.327 851.444,846.762C847.322,847.207 842.823,846.185 838.125,842.662C834.364,839.841 831.333,833.483 830.055,825.197C828.118,812.627 828.854,790.787 828.994,787.132ZM832.407,791.484C834.145,792.603 836.03,792.827 837.99,792.403C836.002,792.833 834.026,792.452 832.407,791.484Z" style="fill-opacity:0.91;"/>
                    </g>
                    <g transform="matrix(0.618981,0,0,0.618981,379.992,204.283)">
                        <path d="M910.929,721.161C909.576,720.066 908.585,718.509 908.222,716.67C907.212,711.556 907.034,708.812 907.105,708.065C907.249,706.556 907.721,705.548 908.078,704.908C909.551,702.269 911.688,701.306 913.734,701.009C915.343,700.775 917.276,700.926 919.284,702.323C919.764,702.658 921.635,704.207 922.9,707.778C927.462,720.655 947.826,800.077 947.826,809C947.826,813.252 944.374,816.705 940.121,816.705C935.869,816.705 932.417,813.252 932.417,809C932.417,801.683 917.735,744.534 910.929,721.161Z" style="fill-opacity:0.91;"/>
                    </g>
                    <g transform="matrix(0.618981,0,0,0.618981,379.992,204.283)">
                        <path d="M928.154,767.931C929.301,766.673 932.054,763.597 934.203,760.75C942.346,749.962 952.928,733.722 957.209,728.558C959.024,726.369 960.664,725.291 961.456,724.919C963.717,723.858 965.643,724.043 967.079,724.461C968.691,724.931 970.066,725.837 971.144,727.265C971.787,728.117 973.703,730.98 972.019,736.032C971.219,738.433 969.348,740.178 967.114,740.915C960.535,749.758 947.218,770.23 940.143,777.803C936.911,781.263 933.813,782.711 932.138,782.986C929.933,783.349 928.066,782.884 926.494,781.969C922.818,779.831 921.57,775.111 923.708,771.436C924.731,769.677 926.345,768.474 928.154,767.931Z" style="fill-opacity:0.91;"/>
                    </g>
                    <g transform="matrix(0.618981,0,0,0.618981,379.992,204.283)">
                        <path d="M996.116,784.832C997.78,783.57 999.948,782.984 1002.16,783.39C1006.35,784.157 1009.12,788.175 1008.35,792.358C1007.32,797.969 1002.81,801.987 993.88,800.274C986.187,798.799 971.864,791.584 958.622,786.589C951.719,783.985 945.276,781.714 940.856,782.636C936.693,783.504 932.608,780.83 931.74,776.667C930.871,772.504 933.546,768.42 937.709,767.551C942.799,766.489 949.762,767.451 957.377,769.844C966.771,772.797 977.452,777.786 986.231,781.44C989.595,782.84 993.904,784.176 996.116,784.832Z" style="fill-opacity:0.91;"/>
                    </g>
                </g>
            </g>
        </g>
    </g>
</svg>
