<svg xmlns="http://www.w3.org/2000/svg" xmlns:xlink="http://www.w3.org/1999/xlink" viewBox="0 0 108.96 126.65">
  <defs>
    <clipPath id="a" transform="translate(-9.52 -0.67)">
      <rect width="128" height="128" style="fill: none"/>
    </clipPath>
  </defs>
  <title>bird</title>
  <g style="clip-path: url(#a)">
    <path d="M118.48,63.89A54.48,54.48,0,1,1,64,9.4a54.48,54.48,0,0,1,54.48,54.49" transform="translate(-9.52 -0.67)" style="fill: #def4ff"/>
    <path d="M90,47.5a6.19,6.19,0,1,1-6.19,6.18A6.18,6.18,0,0,1,90,47.5" transform="translate(-9.52 -0.67)"/>
    <path d="M57.47,96.06l-3.57.84a.65.65,0,0,0-.49.78,93.76,93.76,0,0,1,1.91,15.58.66.66,0,0,1-.52.64c-3.86.81-6.12,2.2-7.71,3.84a.66.66,0,0,0,.63,1.09c1.38-.29,3-.41,4.55-.58a.31.31,0,0,1,.28.5,17.69,17.69,0,0,0-3.81,7.82.66.66,0,0,0,1.12.56,42.84,42.84,0,0,1,8.44-6.72.68.68,0,0,1,.65,0,15.41,15.41,0,0,1,5.46,4.6.66.66,0,0,0,1.18-.48c-.46-3.63-2.7-7.11-5.89-10.53a.59.59,0,0,1-.16-.44,77.6,77.6,0,0,0-2.07-17.48" transform="translate(-9.52 -0.67)" style="fill: #ffdb26"/>
    <path d="M79,91.2l-2.93,2.21a.65.65,0,0,0-.19.82,22.53,22.53,0,0,1,1,2.31s0,0,0,0a45.44,45.44,0,0,1,1.23,5,44,44,0,0,1,1,9.71.61.61,0,0,1-.12.34,34.2,34.2,0,0,0-5.35,9.71.66.66,0,0,0,1.11.63,28.73,28.73,0,0,1,7-5.6.62.62,0,0,1,.42-.09c3.07.36,5.75,2.57,8.42,4.86a.66.66,0,0,0,1.07-.63c-.55-2.76-1.35-5.38-4-6.69a.16.16,0,0,1,0-.3,27,27,0,0,1,5.4.66.66.66,0,0,0,.59-1.09c-2.45-2.88-5.65-3.91-9.63-3.26a.66.66,0,0,1-.78-.67,38,38,0,0,0-.94-8.41A39.76,39.76,0,0,0,81,95.32a17.59,17.59,0,0,0-2-4.12" transform="translate(-9.52 -0.67)" style="fill: #ffdb26"/>
    <path d="M29.68,80.89l11.87,2,5,16.66c-6.26,2.88-22.59-3-25.89-15.42,4.13,2.64,7.09,6.76,15.34,3.79-3-1.15-5-3.63-6.35-7" transform="translate(-9.52 -0.67)" style="fill: #2669b2"/>
    <path d="M28,46.34C25.64,9.4,73.13-6.84,91.52,4,78,9.24,75,8.83,66.21,19c12.78-5.61,29.85-8,40.65-1C83.77,30,97.05,48.32,96.8,70.67c-.41,32.9-10.72,35.45-31.25,36-14.35.41-33.56,1-37.52-60.36" transform="translate(-9.52 -0.67)" style="fill: #2887e5"/>
    <path d="M65.71,50.32a6.19,6.19,0,1,1-6.18,6.18,6.19,6.19,0,0,1,6.18-6.18" transform="translate(-9.52 -0.67)"/>
    <path d="M90,57.64h0a9.32,9.32,0,1,0,0,18.64c7.91,0,26.22-10.89,26.22-10.89S98.28,57.64,90,57.64" transform="translate(-9.52 -0.67)" style="fill: #ffdb26"/>
  </g>
</svg>
