<svg id="Layer_1" data-name="Layer 1" xmlns="http://www.w3.org/2000/svg" width="4.22in" height="2.64in" viewBox="0 0 303.61 189.88">
  <defs>
    <style>
      .cls-1 {
        fill: none;
        stroke-linecap: round;
        stroke-linejoin: round;
        stroke-width: 7.5px;
      }

      .cls-1, .cls-2 {
        stroke: #fff;
      }

      .cls-2, .cls-3 {
        fill: #fff;
      }

      .cls-2 {
        stroke-miterlimit: 10;
        stroke-width: 1.5px;
      }
    </style>
  </defs>
  <title>logo-white</title>
  <g>
    <path class="cls-1" d="M194.73,130.19a7.8,7.8,0,0,1-7.8,7.8H116.67a7.8,7.8,0,0,1-7.8-7.8h0V87.26a7.8,7.8,0,0,1,7.79-7.81h15.63l7.8-11.71h23.42l7.8,11.71h15.61a7.8,7.8,0,0,1,7.81,7.79v43Z" transform="translate(0 0.01)"/>
    <circle class="cls-1" cx="151.8" cy="106.78" r="15.61"/>
  </g>
  <g>
    <path class="cls-1" d="M269.59,104.8c4.12,14.79-8.44,18.26-36.88,10.16" transform="translate(0 0.01)"/>
    <path class="cls-1" d="M242.52,117.43c6.07,11.66-22.53,18.22-33.8,13.19,0,0-.87-32.1.15-39.46,54.5,0,82.25-11.73,82.25-11.73,8.72-.72,24.8,32.3-34.78,24.16" transform="translate(0 0.01)"/>
  </g>
  <g>
    <path class="cls-1" d="M34,104.8c-4.12,14.79,8.44,18.26,36.88,10.16" transform="translate(0 0.01)"/>
    <path class="cls-1" d="M61.08,117.43c-6.07,11.66,22.53,18.22,33.8,13.19,0,0,.87-32.1-.15-39.46-54.5,0-82.25-11.73-82.25-11.73-8.72-.72-24.8,32.3,34.78,24.16" transform="translate(0 0.01)"/>
  </g>
  <g>
    <path class="cls-2" d="M97.67,162.34h-7v22.85a4.16,4.16,0,0,1-.88,2.92,2.93,2.93,0,0,1-2.27,1,3,3,0,0,1-2.31-1,4.18,4.18,0,0,1-.89-2.91V162.34H77.37a3.51,3.51,0,0,1-2.42-.72,2.66,2.66,0,0,1-.07-3.76l.07-.07a3.6,3.6,0,0,1,2.39-.71H97.59a3.57,3.57,0,0,1,2.46.73,2.47,2.47,0,0,1,.8,1.91,2.42,2.42,0,0,1-.81,1.9A3.6,3.6,0,0,1,97.67,162.34Z" transform="translate(0 0.01)"/>
    <path class="cls-2" d="M118,156.53a16.73,16.73,0,0,1,8.4,2,12.86,12.86,0,0,1,5.31,5.64,19.32,19.32,0,0,1,1.8,8.6,20.65,20.65,0,0,1-1,6.62,14.22,14.22,0,0,1-3,5.17,12.86,12.86,0,0,1-4.85,3.35,19.06,19.06,0,0,1-13.19,0,13,13,0,0,1-4.87-3.36,14.43,14.43,0,0,1-2.95-5.21,21,21,0,0,1-1-6.59,20.29,20.29,0,0,1,1-6.65,14.36,14.36,0,0,1,3-5.15,13,13,0,0,1,4.8-3.25A17.26,17.26,0,0,1,118,156.53Zm9,16.17a14.84,14.84,0,0,0-1.11-6,8.35,8.35,0,0,0-3.19-3.83,8.74,8.74,0,0,0-4.75-1.3,8.58,8.58,0,0,0-3.53.72,7.66,7.66,0,0,0-2.79,2.09,9.93,9.93,0,0,0-1.84,3.51,15.86,15.86,0,0,0-.68,4.79,16.25,16.25,0,0,0,.68,4.85,9.81,9.81,0,0,0,1.91,3.59,7.93,7.93,0,0,0,2.83,2.14,8.89,8.89,0,0,0,8-.52,8.41,8.41,0,0,0,3.26-3.77A14.68,14.68,0,0,0,127,172.7Z" transform="translate(0 0.01)"/>
    <path class="cls-2" d="M139,175.51V160.39a4.21,4.21,0,0,1,.87-2.9,2.92,2.92,0,0,1,2.28-1,3,3,0,0,1,2.35,1,4.21,4.21,0,0,1,.87,2.9v15.47a14,14,0,0,0,.59,4.4A5.17,5.17,0,0,0,148,183a7.74,7.74,0,0,0,4.21,1q3.74,0,5.28-2c1-1.33,1.55-3.33,1.54-6V160.39a4.28,4.28,0,0,1,.86-2.91,2.91,2.91,0,0,1,2.29-.95,3,3,0,0,1,2.33.95,4.08,4.08,0,0,1,.89,2.91v15.12a22.43,22.43,0,0,1-.72,6.16A9.4,9.4,0,0,1,162,186a10.52,10.52,0,0,1-4,2.32,17.4,17.4,0,0,1-5.32.73,21.89,21.89,0,0,1-6.24-.78,10,10,0,0,1-4.27-2.43,9.83,9.83,0,0,1-2.43-4.2A21.52,21.52,0,0,1,139,175.51Z" transform="translate(0 0.01)"/>
    <path class="cls-2" d="M180.87,175.06h-2.23v10.11a4.21,4.21,0,0,1-.88,2.94,3,3,0,0,1-2.3.94,2.91,2.91,0,0,1-2.36-1,4.4,4.4,0,0,1-.83-2.89V161a3.35,3.35,0,0,1,2.68-3.91,3.57,3.57,0,0,1,1.22,0h10.36a30,30,0,0,1,3.67.19A9,9,0,0,1,193,158a8,8,0,0,1,4.34,4.47,8.82,8.82,0,0,1,.59,3.25,7.86,7.86,0,0,1-2,5.62,11.47,11.47,0,0,1-6,3,11.71,11.71,0,0,1,3.24,2.66,26.62,26.62,0,0,1,2.76,3.75,27.11,27.11,0,0,1,1.92,3.61,7.31,7.31,0,0,1,.68,2.2,2.25,2.25,0,0,1-.4,1.23,2.73,2.73,0,0,1-1.08,1,3.51,3.51,0,0,1-1.59.35,3.18,3.18,0,0,1-1.8-.5,5.11,5.11,0,0,1-1.26-1.28c-.35-.52-.82-1.27-1.42-2.28l-2.55-4.24a23.49,23.49,0,0,0-2.46-3.56,6,6,0,0,0-2.2-1.68A7.54,7.54,0,0,0,180.87,175.06Zm3.65-13.21h-5.88v8.64h5.7a15.76,15.76,0,0,0,3.87-.4,4.49,4.49,0,0,0,2.39-1.35,3.82,3.82,0,0,0,.82-2.62,3.95,3.95,0,0,0-2.51-3.8A13.28,13.28,0,0,0,184.52,161.85Z" transform="translate(0 0.01)"/>
    <path class="cls-2" d="M227.8,179.07a9.23,9.23,0,0,1-1.47,5.13,9.71,9.71,0,0,1-4.3,3.56,16,16,0,0,1-6.72,1.29,15.2,15.2,0,0,1-7.68-1.76,10.14,10.14,0,0,1-3.48-3.38,7.65,7.65,0,0,1-1.34-4.11,2.72,2.72,0,0,1,.8-2,2.77,2.77,0,0,1,2-.83,2.45,2.45,0,0,1,1.71.65,5.13,5.13,0,0,1,1.19,1.91,13.23,13.23,0,0,0,1.29,2.51,5.36,5.36,0,0,0,2,1.66,7.3,7.3,0,0,0,3.32.65,7.53,7.53,0,0,0,4.6-1.32,4,4,0,0,0,1.77-3.29,3.46,3.46,0,0,0-.95-2.54,6,6,0,0,0-2.47-1.49c-1.31-.43-2.65-.8-4-1.1a30.65,30.65,0,0,1-5.68-1.85,9.22,9.22,0,0,1-3.62-2.9,7.47,7.47,0,0,1-1.34-4.56,7.82,7.82,0,0,1,1.41-4.61,9,9,0,0,1,4.1-3.1,16.77,16.77,0,0,1,6.31-1.08,15.73,15.73,0,0,1,5,.72,10.37,10.37,0,0,1,3.5,1.9,8,8,0,0,1,2,2.5,5.85,5.85,0,0,1,.65,2.56,3,3,0,0,1-.81,2,2.57,2.57,0,0,1-2,.91,2.35,2.35,0,0,1-1.67-.55,7.12,7.12,0,0,1-1.23-1.79,8.17,8.17,0,0,0-2.06-2.78,6,6,0,0,0-3.86-1,6.65,6.65,0,0,0-4,1.09,3.14,3.14,0,0,0-1.51,2.6,2.63,2.63,0,0,0,.49,1.67,4.38,4.38,0,0,0,1.42,1.18,10.08,10.08,0,0,0,1.82.78c.62.18,1.63.45,3,.81a47.09,47.09,0,0,1,4.81,1.37,14.27,14.27,0,0,1,3.75,1.86,7.42,7.42,0,0,1,2.36,2.71A8.58,8.58,0,0,1,227.8,179.07Z" transform="translate(0 0.01)"/>
  </g>
  <g>
    <path class="cls-3" d="M78.8,46.63a13,13,0,0,1,1.9,7.24,13.77,13.77,0,0,1-2.64,7.38,22.68,22.68,0,0,1-7.19,6.35A21.08,21.08,0,0,1,60.35,71a14.35,14.35,0,0,1-6.55-1.58,10.75,10.75,0,0,1-4.55-4A3.9,3.9,0,0,1,50.56,60l.12-.07a3.38,3.38,0,0,1,2.52-.44A7,7,0,0,1,56,61a18.54,18.54,0,0,0,3.36,2.1,7.37,7.37,0,0,0,3.56.6,10.27,10.27,0,0,0,4.48-1.59A10.49,10.49,0,0,0,72,57.2,5.59,5.59,0,0,0,71.79,52a4.94,4.94,0,0,0-3-2.39,8.72,8.72,0,0,0-4,0c-1.47.31-3.35.83-5.67,1.57A41.43,41.43,0,0,1,51,53a12.83,12.83,0,0,1-6.45-.9,10.58,10.58,0,0,1-4.88-4.54A11,11,0,0,1,38,40.94a12.6,12.6,0,0,1,2.73-6.67,23.58,23.58,0,0,1,6.83-5.82,21.68,21.68,0,0,1,6.56-2.71,15.08,15.08,0,0,1,5.6-.21A11,11,0,0,1,64,27.09a8,8,0,0,1,2.6,2.62,4.24,4.24,0,0,1,.5,3,3.65,3.65,0,0,1-1.77,2.53,3.2,3.2,0,0,1-2.4.53,10.56,10.56,0,0,1-2.77-1.28,11.41,11.41,0,0,0-4.47-1.88c-1.44-.23-3.24.29-5.38,1.56a9.44,9.44,0,0,0-4,4.15,4.41,4.41,0,0,0,0,4.23,3.67,3.67,0,0,0,1.79,1.6,6,6,0,0,0,2.55.41,13.38,13.38,0,0,0,2.75-.37q1.32-.33,4.26-1.2,3.66-1.14,6.79-1.79a20.8,20.8,0,0,1,5.73-.42A10.48,10.48,0,0,1,75,42.37,12.06,12.06,0,0,1,78.8,46.63Z" transform="translate(0 0.01)"/>
    <path class="cls-3" d="M89,15.26,112.8,35.39,105.43,10.2a5.74,5.74,0,0,1,0-4,3.71,3.71,0,0,1,2.49-2.06,3.78,3.78,0,0,1,3.27.38,5.71,5.71,0,0,1,2.15,3.37l9.74,33.3q1.64,5.56-3,6.92a6.39,6.39,0,0,1-2.17.28,5.26,5.26,0,0,1-2-.55,10.63,10.63,0,0,1-2-1.25c-.65-.51-1.31-1-2-1.57L88.56,25l7.26,24.81a5.63,5.63,0,0,1,0,4,3.87,3.87,0,0,1-2.53,2.09A3.8,3.8,0,0,1,90,55.51a5.58,5.58,0,0,1-2.21-3.28L78.24,19.56a9.3,9.3,0,0,1-.49-3.39A4.81,4.81,0,0,1,79,13.51a5.07,5.07,0,0,1,2.5-1.63,4.71,4.71,0,0,1,3.83.39A11.48,11.48,0,0,1,87,13.54Z" transform="translate(0 0.01)"/>
    <path class="cls-3" d="M158.92,39.63l-2.23-5.49-17.89.39-2,5.7a19.15,19.15,0,0,1-2,4.51A3.32,3.32,0,0,1,132,46a4.25,4.25,0,0,1-3-1.17A3.81,3.81,0,0,1,127.62,42a6.28,6.28,0,0,1,.26-1.88c.19-.64.5-1.54.93-2.69L139.47,8.57l1.09-3a15.81,15.81,0,0,1,1.38-2.91,6,6,0,0,1,2-1.89A6.12,6.12,0,0,1,147,0a6.27,6.27,0,0,1,3.13.63,6.05,6.05,0,0,1,2.05,1.78,12.85,12.85,0,0,1,1.35,2.36Q154.1,6,155,8.16L167,36.34A14.3,14.3,0,0,1,168.49,41a3.87,3.87,0,0,1-1.21,2.84,4.23,4.23,0,0,1-3.06,1.35,4,4,0,0,1-1.81-.34,3.71,3.71,0,0,1-1.29-1,9.66,9.66,0,0,1-1.14-2C159.57,41.08,159.22,40.34,158.92,39.63Zm-18-11.86,13.18-.29-7-18.06Z" transform="translate(0 0.01)"/>
    <path class="cls-3" d="M193.14,32.49l-8-1.84-2.81,12.17a5.88,5.88,0,0,1-2.15,3.68A4.44,4.44,0,0,1,174,45.25l-.12-.19a5.79,5.79,0,0,1-.3-4.19l7.65-33.13q.66-2.88,2.26-3.8A6.15,6.15,0,0,1,188,3.67l11.17,2.58a29.77,29.77,0,0,1,7.45,2.52,11.78,11.78,0,0,1,4,3.49,11.12,11.12,0,0,1,2,4.84,14.77,14.77,0,0,1-.28,5.77q-1.51,6.57-6.34,9C202.8,33.52,198.48,33.73,193.14,32.49Zm2.44-20.15L189.72,11l-3,13.13,5.86,1.36a18.14,18.14,0,0,0,5.29.54,6.14,6.14,0,0,0,3.64-1.38,6.49,6.49,0,0,0,2-3.59,6.75,6.75,0,0,0-.61-5Q201.42,13.65,195.58,12.34Z" transform="translate(0 0.01)"/>
    <path class="cls-3" d="M241.26,55.34A12.94,12.94,0,0,1,236.34,61a13.75,13.75,0,0,1-7.58,2,22.72,22.72,0,0,1-9.29-2.36,21.13,21.13,0,0,1-8.71-6.8,14.26,14.26,0,0,1-2.42-6.37,10.73,10.73,0,0,1,.73-6,3.91,3.91,0,0,1,5.18-1.94l.12.06a3.36,3.36,0,0,1,1.78,1.83,7.13,7.13,0,0,1,.38,3.14,18.44,18.44,0,0,0,.16,4,7.4,7.4,0,0,0,1.5,3.28,12.25,12.25,0,0,0,10.47,3.87,5.59,5.59,0,0,0,4.21-3.13,4.88,4.88,0,0,0,.3-3.8,8.62,8.62,0,0,0-2.25-3.42c-1.08-1-2.58-2.3-4.49-3.8a41.87,41.87,0,0,1-6.1-5.73A12.92,12.92,0,0,1,217.44,30a10.49,10.49,0,0,1,1-6.58,11,11,0,0,1,4.54-5,12.44,12.44,0,0,1,7.05-1.5,23.39,23.39,0,0,1,8.66,2.37,22,22,0,0,1,5.93,3.89,14.9,14.9,0,0,1,3.32,4.51,11.34,11.34,0,0,1,1.11,4.39,8.37,8.37,0,0,1-.7,3.63,4.22,4.22,0,0,1-2.24,2.12,3.63,3.63,0,0,1-3.09,0,3.23,3.23,0,0,1-1.79-1.69,10.19,10.19,0,0,1-.5-3,11.31,11.31,0,0,0-.93-4.77q-.93-2-4.31-3.56a9.32,9.32,0,0,0-5.7-1,4.41,4.41,0,0,0-3.47,2.41,3.7,3.7,0,0,0-.32,2.38,6.15,6.15,0,0,0,1.1,2.34A13.48,13.48,0,0,0,229,33c.67.6,1.79,1.55,3.38,2.85a66.41,66.41,0,0,1,5.31,4.61,20.4,20.4,0,0,1,3.57,4.5,10.47,10.47,0,0,1,1.39,4.85A12.23,12.23,0,0,1,241.26,55.34Z" transform="translate(0 0.01)"/>
    <path class="cls-3" d="M244.09,75a4.71,4.71,0,0,1-1.92-2.83,4.15,4.15,0,0,1,.81-3.51,4.48,4.48,0,0,1,6.25-1l0,0a4.44,4.44,0,0,1,1.87,2.94,4.58,4.58,0,0,1-3.76,5.28h0A4.66,4.66,0,0,1,244.09,75Zm8.76-18.07,7.58-12.3c1.48-2.4,2.58-4.09,3.29-5.09A5.46,5.46,0,0,1,267,37.1a4.48,4.48,0,0,1,3.62.86c1.41,1,2,2.15,1.78,3.46a12.22,12.22,0,0,1-2.28,4.71c-.77,1.08-1.61,2.13-2.51,3.16L258,60.63a11.75,11.75,0,0,1-3.09,2.79,2.35,2.35,0,0,1-2.68-.18,2.26,2.26,0,0,1-1.05-2.42,13.62,13.62,0,0,1,1.68-3.92Z" transform="translate(0 0.01)"/>
  </g>
</svg>
