<svg id="Layer_1" data-name="Layer 1" xmlns="http://www.w3.org/2000/svg" width="303.61" height="189.8" viewBox="0 0 303.61 189.8">
  <defs>
    <style>
      .cls-1 {
        fill: none;
        stroke-linecap: round;
        stroke-linejoin: round;
        stroke-width: 7.5px;
      }

      .cls-1, .cls-2 {
        stroke: #1e1e1e;
      }

      .cls-2, .cls-3 {
        fill: #1e1e1e;
      }

      .cls-2 {
        stroke-miterlimit: 10;
        stroke-width: 1.5px;
      }
    </style>
  </defs>
  <title>logo black</title>
  <g>
    <path class="cls-1" d="M222.93,138.85a7.8,7.8,0,0,1-7.81,7.8H144.87a7.8,7.8,0,0,1-7.8-7.8V95.92a7.8,7.8,0,0,1,7.8-7.81h15.62l7.8-11.71h23.42l7.8,11.71h15.61a7.8,7.8,0,0,1,7.81,7.81Z" transform="translate(-28.2 -8.66)"/>
    <circle class="cls-1" cx="151.8" cy="106.77" r="15.61"/>
  </g>
  <g>
    <path class="cls-1" d="M297.79,113.46c4.12,14.79-8.44,18.26-36.88,10.16" transform="translate(-28.2 -8.66)"/>
    <path class="cls-1" d="M270.72,126.09c6.07,11.66-22.53,18.22-33.8,13.19,0,0-.87-32.1.15-39.46,54.5,0,82.25-11.73,82.25-11.73,8.72-.72,24.8,32.3-34.78,24.16" transform="translate(-28.2 -8.66)"/>
  </g>
  <g>
    <path class="cls-1" d="M62.21,113.46c-4.12,14.79,8.44,18.26,36.88,10.16" transform="translate(-28.2 -8.66)"/>
    <path class="cls-1" d="M89.28,126.09c-6.07,11.66,22.53,18.22,33.8,13.19,0,0,.87-32.1-.15-39.46-54.5,0-82.25-11.73-82.25-11.73-8.72-.72-24.8,32.3,34.78,24.16" transform="translate(-28.2 -8.66)"/>
  </g>
  <g>
    <path class="cls-2" d="M125.87,171h-7v22.85a4.16,4.16,0,0,1-.88,2.92,2.92,2.92,0,0,1-2.27,1,3,3,0,0,1-2.31-1,4.17,4.17,0,0,1-.89-2.91V171h-6.95a3.52,3.52,0,0,1-2.42-.72,2.66,2.66,0,0,1,0-3.83,3.59,3.59,0,0,1,2.39-.71h20.25a3.6,3.6,0,0,1,2.46.73,2.46,2.46,0,0,1,.8,1.91,2.41,2.41,0,0,1-.81,1.9A3.6,3.6,0,0,1,125.87,171Z" transform="translate(-28.2 -8.66)"/>
    <path class="cls-2" d="M146.17,165.19a16.83,16.83,0,0,1,8.4,2,12.87,12.87,0,0,1,5.31,5.64,19.29,19.29,0,0,1,1.8,8.6,20.87,20.87,0,0,1-1,6.62,14.22,14.22,0,0,1-3,5.17,12.83,12.83,0,0,1-4.85,3.35,19.1,19.1,0,0,1-13.19,0,13.07,13.07,0,0,1-4.87-3.36,14.39,14.39,0,0,1-2.95-5.21,21.21,21.21,0,0,1-1-6.59,20.47,20.47,0,0,1,1-6.65,14.41,14.41,0,0,1,3-5.15,13,13,0,0,1,4.8-3.25A17.36,17.36,0,0,1,146.17,165.19Zm9.05,16.17a14.78,14.78,0,0,0-1.11-6,8.34,8.34,0,0,0-3.19-3.83,8.71,8.71,0,0,0-4.75-1.3,8.6,8.6,0,0,0-3.53.72,7.71,7.71,0,0,0-2.79,2.09,9.88,9.88,0,0,0-1.84,3.51,15.83,15.83,0,0,0-.68,4.79,16.24,16.24,0,0,0,.68,4.85,9.75,9.75,0,0,0,1.91,3.59,8,8,0,0,0,2.83,2.14,8.9,8.9,0,0,0,8-.52,8.46,8.46,0,0,0,3.26-3.77A14.58,14.58,0,0,0,155.22,181.36Z" transform="translate(-28.2 -8.66)"/>
    <path class="cls-2" d="M167.17,184.17V169.05a4.21,4.21,0,0,1,.87-2.9,2.93,2.93,0,0,1,2.28-1,3,3,0,0,1,2.35,1,4.21,4.21,0,0,1,.87,2.9v15.47a14.19,14.19,0,0,0,.59,4.4,5.13,5.13,0,0,0,2.09,2.75,7.73,7.73,0,0,0,4.21,1q3.73,0,5.28-2t1.54-6V169.05a4.27,4.27,0,0,1,.86-2.91,2.92,2.92,0,0,1,2.29-.95,3,3,0,0,1,2.33.95,4.12,4.12,0,0,1,.89,2.91v15.12a22.39,22.39,0,0,1-.72,6.16,9.41,9.41,0,0,1-2.71,4.33,10.51,10.51,0,0,1-4,2.32,17.37,17.37,0,0,1-5.32.73,22,22,0,0,1-6.24-.78,10,10,0,0,1-4.27-2.43,9.8,9.8,0,0,1-2.43-4.2A21.58,21.58,0,0,1,167.17,184.17Z" transform="translate(-28.2 -8.66)"/>
    <path class="cls-2" d="M209.07,183.72h-2.23v10.11a4.23,4.23,0,0,1-.88,2.94,3,3,0,0,1-2.3.94,2.93,2.93,0,0,1-2.36-1,4.41,4.41,0,0,1-.83-2.89v-24.2a3.35,3.35,0,0,1,3.9-3.91h10.36a29.52,29.52,0,0,1,3.67.19,9,9,0,0,1,2.75.74,8,8,0,0,1,4.34,4.47,9,9,0,0,1,.59,3.25,7.87,7.87,0,0,1-2,5.62,11.46,11.46,0,0,1-6,3,11.69,11.69,0,0,1,3.24,2.66,26.62,26.62,0,0,1,2.76,3.75A28,28,0,0,1,226,193a7.11,7.11,0,0,1,.68,2.2,2.22,2.22,0,0,1-.4,1.23,2.75,2.75,0,0,1-1.08,1,3.51,3.51,0,0,1-1.59.35,3.15,3.15,0,0,1-1.8-.5,5.11,5.11,0,0,1-1.26-1.28c-.35-.52-.82-1.27-1.42-2.28l-2.55-4.24a23.51,23.51,0,0,0-2.46-3.56,6,6,0,0,0-2.2-1.68A7.55,7.55,0,0,0,209.07,183.72Zm3.65-13.21h-5.88v8.64h5.7a15.76,15.76,0,0,0,3.87-.4,4.48,4.48,0,0,0,2.39-1.35,3.86,3.86,0,0,0,.82-2.62,4.07,4.07,0,0,0-.66-2.31,4,4,0,0,0-1.85-1.49A13.1,13.1,0,0,0,212.72,170.51Z" transform="translate(-28.2 -8.66)"/>
    <path class="cls-2" d="M256,187.73a9.24,9.24,0,0,1-1.47,5.13,9.73,9.73,0,0,1-4.3,3.56,16.11,16.11,0,0,1-6.72,1.29,15.15,15.15,0,0,1-7.68-1.76,10.14,10.14,0,0,1-3.48-3.38,7.63,7.63,0,0,1-1.34-4.11,2.72,2.72,0,0,1,.8-2,2.75,2.75,0,0,1,2.05-.83,2.45,2.45,0,0,1,1.71.65,5.09,5.09,0,0,1,1.19,1.91,13.27,13.27,0,0,0,1.29,2.51,5.33,5.33,0,0,0,2,1.66,7.31,7.31,0,0,0,3.32.65,7.49,7.49,0,0,0,4.6-1.32,4,4,0,0,0,1.77-3.29,3.46,3.46,0,0,0-.95-2.54,6.15,6.15,0,0,0-2.47-1.49,41.16,41.16,0,0,0-4-1.1,30.55,30.55,0,0,1-5.68-1.85,9.2,9.2,0,0,1-3.62-2.9,7.47,7.47,0,0,1-1.34-4.56,7.84,7.84,0,0,1,1.41-4.61,9,9,0,0,1,4.1-3.1,16.84,16.84,0,0,1,6.31-1.08,15.59,15.59,0,0,1,5,.72,10.43,10.43,0,0,1,3.5,1.9,8.09,8.09,0,0,1,2,2.5,5.81,5.81,0,0,1,.65,2.56,3,3,0,0,1-.81,2,2.58,2.58,0,0,1-2,.91,2.35,2.35,0,0,1-1.67-.55,7.14,7.14,0,0,1-1.23-1.79,8.14,8.14,0,0,0-2.06-2.78,6,6,0,0,0-3.86-1,6.63,6.63,0,0,0-4,1.09,3.14,3.14,0,0,0-1.51,2.6A2.64,2.64,0,0,0,238,175a4.41,4.41,0,0,0,1.42,1.18,9.88,9.88,0,0,0,1.82.78c.62.18,1.63.45,3,.81a49,49,0,0,1,4.81,1.37A14.45,14.45,0,0,1,252.8,181a7.42,7.42,0,0,1,2.36,2.71A8.63,8.63,0,0,1,256,187.73Z" transform="translate(-28.2 -8.66)"/>
  </g>
  <g>
    <path class="cls-3" d="M107,55.29a13.06,13.06,0,0,1,1.9,7.24,13.77,13.77,0,0,1-2.64,7.38,22.67,22.67,0,0,1-7.19,6.35,21.09,21.09,0,0,1-10.52,3.37A14.33,14.33,0,0,1,82,78.05a10.74,10.74,0,0,1-4.55-4,3.9,3.9,0,0,1,1.43-5.43,3.38,3.38,0,0,1,2.52-.44,7,7,0,0,1,2.8,1.45,18.12,18.12,0,0,0,3.36,2.1,7.34,7.34,0,0,0,3.56.6,10.26,10.26,0,0,0,4.48-1.59,10.51,10.51,0,0,0,4.61-4.88,5.58,5.58,0,0,0-.22-5.24,4.94,4.94,0,0,0-3-2.39,8.72,8.72,0,0,0-4,0c-1.47.31-3.35.83-5.67,1.57a41,41,0,0,1-8.17,1.82,12.78,12.78,0,0,1-6.45-.9,10.54,10.54,0,0,1-4.88-4.54,11,11,0,0,1-1.59-6.58,12.57,12.57,0,0,1,2.73-6.67,23.61,23.61,0,0,1,6.83-5.82,21.67,21.67,0,0,1,6.56-2.71,14.91,14.91,0,0,1,5.6-.21,11.07,11.07,0,0,1,4.25,1.56,8,8,0,0,1,2.6,2.62,4.26,4.26,0,0,1,.5,3,3.64,3.64,0,0,1-1.77,2.53,3.24,3.24,0,0,1-2.4.53,10.5,10.5,0,0,1-2.77-1.28,11.46,11.46,0,0,0-4.47-1.88c-1.44-.23-3.24.29-5.38,1.56a9.41,9.41,0,0,0-4,4.15,4.41,4.41,0,0,0,0,4.23,3.69,3.69,0,0,0,1.79,1.6,6.06,6.06,0,0,0,2.55.41,13.51,13.51,0,0,0,2.75-.37q1.32-.33,4.26-1.2,3.66-1.14,6.79-1.79a20.77,20.77,0,0,1,5.73-.42,10.44,10.44,0,0,1,4.79,1.59A12.05,12.05,0,0,1,107,55.29Z" transform="translate(-28.2 -8.66)"/>
    <path class="cls-3" d="M117.22,23.92,141,44.05l-7.37-25.19a5.77,5.77,0,0,1,0-4,3.71,3.71,0,0,1,2.49-2.06,3.81,3.81,0,0,1,3.27.38,5.71,5.71,0,0,1,2.15,3.37l9.74,33.3q1.64,5.56-3,6.92a6.26,6.26,0,0,1-2.17.28,5.36,5.36,0,0,1-2.05-.55,10.44,10.44,0,0,1-2-1.25c-.65-.51-1.31-1-2-1.57l-23.3-20,7.26,24.81a5.59,5.59,0,0,1,0,4,3.89,3.89,0,0,1-2.53,2.09,3.82,3.82,0,0,1-3.28-.41A5.6,5.6,0,0,1,116,60.89l-9.56-32.67a9.39,9.39,0,0,1-.49-3.39,4.82,4.82,0,0,1,1.2-2.66,5.13,5.13,0,0,1,2.5-1.63,4.7,4.7,0,0,1,3.83.39,11.46,11.46,0,0,1,1.75,1.27Z" transform="translate(-28.2 -8.66)"/>
    <path class="cls-3" d="M187.12,48.29l-2.23-5.49L167,43.19l-2,5.7a19.11,19.11,0,0,1-2,4.51,3.34,3.34,0,0,1-2.83,1.23,4.24,4.24,0,0,1-3-1.17,3.78,3.78,0,0,1-1.35-2.77,6.26,6.26,0,0,1,.26-1.88c.19-.64.5-1.54.93-2.69l10.66-28.89,1.09-3a15.88,15.88,0,0,1,1.38-2.91,6,6,0,0,1,2-1.89,6.09,6.09,0,0,1,3.07-.77,6.28,6.28,0,0,1,3.13.63,6,6,0,0,1,2.05,1.78,12.77,12.77,0,0,1,1.35,2.36q.56,1.28,1.41,3.39L195.24,45a14.17,14.17,0,0,1,1.45,4.69,3.89,3.89,0,0,1-1.21,2.84,4.23,4.23,0,0,1-3.06,1.35,4.07,4.07,0,0,1-1.81-.34,3.71,3.71,0,0,1-1.29-1,9.67,9.67,0,0,1-1.14-2C187.77,49.74,187.42,49,187.12,48.29Zm-18-11.86,13.18-.29-7.05-18.06Z" transform="translate(-28.2 -8.66)"/>
    <path class="cls-3" d="M221.34,41.15l-8-1.84-2.81,12.17a5.84,5.84,0,0,1-2.15,3.68,4.44,4.44,0,0,1-6.27-1.44,5.77,5.77,0,0,1-.3-4.19l7.65-33.13q.66-2.88,2.26-3.8a6.16,6.16,0,0,1,4.48-.27l11.17,2.58a29.81,29.81,0,0,1,7.45,2.52,11.7,11.7,0,0,1,4,3.49,11.16,11.16,0,0,1,2,4.84,14.82,14.82,0,0,1-.28,5.77q-1.52,6.57-6.34,9C231,42.18,226.68,42.39,221.34,41.15ZM223.78,21l-5.86-1.35-3,13.13,5.86,1.36a18.14,18.14,0,0,0,5.29.54,6.14,6.14,0,0,0,3.64-1.38,6.5,6.5,0,0,0,2-3.59,6.72,6.72,0,0,0-.61-5Q229.61,22.31,223.78,21Z" transform="translate(-28.2 -8.66)"/>
    <path class="cls-3" d="M269.46,64a12.9,12.9,0,0,1-4.92,5.64,13.72,13.72,0,0,1-7.58,2,22.7,22.7,0,0,1-9.29-2.36,21.14,21.14,0,0,1-8.71-6.8,14.22,14.22,0,0,1-2.42-6.37,10.73,10.73,0,0,1,.73-6,3.91,3.91,0,0,1,5.3-1.88,3.39,3.39,0,0,1,1.78,1.83,7,7,0,0,1,.38,3.14,18.33,18.33,0,0,0,.16,4,7.41,7.41,0,0,0,1.5,3.28,10.4,10.4,0,0,0,3.84,2.81,10.58,10.58,0,0,0,6.63,1.06,5.6,5.6,0,0,0,4.21-3.13,4.9,4.9,0,0,0,.3-3.8A8.62,8.62,0,0,0,259.12,54c-1.08-1-2.58-2.3-4.49-3.8a41.6,41.6,0,0,1-6.1-5.73,12.85,12.85,0,0,1-2.89-5.84,10.51,10.51,0,0,1,1-6.58,10.94,10.94,0,0,1,4.54-5,12.46,12.46,0,0,1,7.05-1.5,23.38,23.38,0,0,1,8.66,2.37,22,22,0,0,1,5.93,3.89,14.83,14.83,0,0,1,3.32,4.51,11.28,11.28,0,0,1,1.11,4.39,8.26,8.26,0,0,1-.7,3.63,4.23,4.23,0,0,1-2.24,2.12,3.63,3.63,0,0,1-3.09,0,3.24,3.24,0,0,1-1.79-1.69,10.17,10.17,0,0,1-.5-3A11.38,11.38,0,0,0,268,37q-.93-2-4.31-3.56a9.35,9.35,0,0,0-5.7-1,4.39,4.39,0,0,0-3.47,2.41,3.7,3.7,0,0,0-.32,2.38,6.21,6.21,0,0,0,1.1,2.34,13.68,13.68,0,0,0,1.86,2.06q1,.9,3.38,2.85a66.72,66.72,0,0,1,5.31,4.61,20.51,20.51,0,0,1,3.57,4.5,10.47,10.47,0,0,1,1.39,4.85A12.22,12.22,0,0,1,269.46,64Z" transform="translate(-28.2 -8.66)"/>
    <path class="cls-3" d="M272.29,83.63a4.72,4.72,0,0,1-1.92-2.83,4.15,4.15,0,0,1,.81-3.51,4.48,4.48,0,0,1,6.28-1,4.43,4.43,0,0,1,1.87,2.94,4.58,4.58,0,0,1-3.77,5.28A4.64,4.64,0,0,1,272.29,83.63Zm8.76-18.07,7.58-12.3c1.48-2.4,2.58-4.09,3.29-5.09a5.46,5.46,0,0,1,3.32-2.41,4.47,4.47,0,0,1,3.62.86c1.41,1,2,2.15,1.78,3.46a12.17,12.17,0,0,1-2.28,4.71c-.77,1.08-1.61,2.13-2.51,3.16l-9.66,11.34a11.84,11.84,0,0,1-3.09,2.79,2.35,2.35,0,0,1-2.68-.18,2.26,2.26,0,0,1-1.05-2.42A13.79,13.79,0,0,1,281.05,65.56Z" transform="translate(-28.2 -8.66)"/>
  </g>
</svg>
