<?xml version="1.0" encoding="utf-8"?>
<!-- Generator: Adobe Illustrator 22.0.0, SVG Export Plug-In . SVG Version: 6.00 Build 0)  -->
<svg version="1.1" id="Layer_1" xmlns="http://www.w3.org/2000/svg" xmlns:xlink="http://www.w3.org/1999/xlink" x="0px" y="0px"
	 width="413.4px" height="98.8px" viewBox="0 0 413.4 98.8" style="enable-background:new 0 0 413.4 98.8;" xml:space="preserve">
<style type="text/css">
	.st0{fill:#FFD297;}
</style>
<g id="Layer_2_1_">
</g>
<g id="Layer_1_1_">
	<g>
		<g>
			<path class="st0" d="M3.9,96.5c-2.5,0-3.6-1.1-3.6-3.6c0-21.5,0-43,0-64.4c0-2.5,1.1-3.9,3.5-4.5c6.1-1.5,9.1-2.2,15.2-3.6
				c2.5-0.6,3.5,0.4,3.6,3c0,9.3,0.1,13.9,0.1,23.1c6.6-1,9.9-1.4,16.5-2.3C39,34.5,39,29.7,39,20c0-2.8,1.1-4.2,3.5-4.7
				c6.1-1.2,9.2-1.8,15.3-2.9c2.5-0.4,3.6,0.7,3.6,3.6c0.2,25.3,0.3,50.6,0.5,75.9c0,2.9-1.1,4.2-3.6,4.2c-6.2,0-9.2,0-15.4,0.1
				c-2.5,0-3.6-1.2-3.6-4c0-9.7,0-14.7,0-24.6c-6.6,0.5-9.9,0.8-16.6,1.3c0,9.5,0.1,14.2,0.1,23.7c0,2.7-1.1,3.8-3.6,3.9
				C13.1,96.5,10,96.5,3.9,96.5z"/>
			<path class="st0" d="M105.7,98c-16.1,0-31.5-6.1-31.1-24.5c-0.1-13.6-0.2-27.3-0.3-40.9C73.8,14.2,88.6,5.7,105,3.6
				c17.4-2.2,31.5,4.4,31.1,23.5c0.1,14.8,0.2,29.6,0.2,44.4C136.8,90.5,123,98.1,105.7,98z M105.5,73.7c7.3-0.2,8.3-2.8,8.3-6.2
				c-0.1-11.4-0.1-22.8-0.2-34.2c0-3.3-1.1-5.8-8.4-5.1c-7.2,0.7-8.3,3.3-8.3,6.5C97,45.9,97.1,57,97.1,68.2
				C97.1,71.5,98.3,74,105.5,73.7z"/>
			<path class="st0" d="M165.8,96c-5.8,0-8.8,0-14.6,0c-2.5,0-3.6-1.4-3.6-4.7c-0.1-11.6-0.1-23.1-0.2-34.7c0-5.3,1.1-11.9,3.8-21.2
				c2.9-10.1,5.7-20.3,8.6-30.4c0.8-3.1,2.4-4.5,5.1-4.6c10.8-0.5,16.2-0.7,26.9-0.9c2.6,0,4.2,1.3,5,4.4
				c2.9,10.1,5.8,20.3,8.7,30.4c2.7,9.4,3.9,16.1,3.9,21.5c0,11.8,0,23.6,0,35.4c0,3.4-1.1,4.8-3.6,4.8c-6,0-9,0-15,0
				c-2.7,0-3.9-1.5-3.9-4.8c0-7.5,0-11.2,0-18.7c-7.1,0-10.6,0.1-17.6,0.2c0,7.5,0,11.2,0.1,18.6C169.3,94.6,168.3,96,165.8,96z
				 M170.3,48.4c6.3-0.1,9.4-0.2,15.7-0.3c-1.9-8.1-2.8-12.2-4.7-20.3c-0.5-1.6-1.1-2.2-1.9-2.2c-1,0-1.5,0-2.5,0.1
				c-0.8,0-1.4,0.7-1.9,2.3C172.9,36.2,172,40.2,170.3,48.4z"/>
			<path class="st0" d="M245,96c-16.2,0.6-25.4-11.9-24.4-27.4c0-13.9,0-27.9,0-41.8c-1-15.4,8.4-27.9,24.7-26.6
				c10,0.5,15,0.8,25,1.5c2.5,0.2,3.6,1.7,3.6,5c0,6.3,0,9.5-0.1,15.8c0,3.3-1.1,4.6-3.6,4.5c-8.3-0.5-12.5-0.7-20.8-1
				c-4.2-0.2-6.1,1.9-6.1,6.4c0,10.6-0.1,21.2-0.1,31.8c0,4.5,1.5,6.5,4.6,6.6c3.9,0.1,5.8,0.1,9.7,0.1c0-8.2,0-12.4,0.1-20.6
				c0-3.3,1.1-4.7,3.6-4.6c6.2,0.2,9.3,0.3,15.5,0.6c2.5,0.1,3.6,1.6,3.6,4.8c-0.1,13.4-0.1,26.7-0.2,40.1c0,3.2-1.1,4.7-3.6,4.7
				C265.9,96.1,255.4,96,245,96z"/>
			<path class="st0" d="M309.3,96.1c-2.6,0-3.6-1.4-3.6-4.6c0-6.5,0.1-9.7,0.1-16.2c-5.1-8.9-10.1-17.8-15.1-26.7
				c-3.1-5.4-3.7-8.1-3.7-16.1c0.1-9.9,0.1-14.9,0.1-24.8c0-3.2,1.1-4.5,3.6-4.3c6.2,0.6,9.2,1,15.4,1.7c2.5,0.3,3.6,1.8,3.6,5
				c0,8.4,0,12.5,0,20.7c0,1.8,0,3.5,0.9,5.3c1.8,3.8,2.7,5.6,4.5,9.4c0.7,1.5,1.3,2.2,2.4,2.3c0.4,0,0.6,0,1,0.1
				c1.1,0.1,1.7-0.5,2.4-1.9c1.9-3.4,2.8-5.1,4.6-8.5c0.9-1.6,0.9-3.3,0.9-5.1c0.1-8,0.1-12.1,0.1-20.1c0-3.1,1.1-4.3,3.6-3.9
				c5.9,0.9,8.9,1.3,14.8,2.3c2.5,0.4,3.6,1.9,3.5,4.8c-0.1,9.1-0.1,13.6-0.2,22.6c0,7.3-0.9,9.6-3.9,14.2
				c-5.2,7.9-10.3,15.9-15.3,23.9c0,6.2-0.1,9.3-0.1,15.5c0,3-1.1,4.4-3.6,4.4C318.9,96.2,315.8,96.2,309.3,96.1z"/>
			<path class="st0" d="M360.9,96.3c-2.5,0-3.6-1.3-3.6-4.2c0-5.4,0.1-8.1,0.1-13.5c0-2.9,1.1-4.1,3.6-4c10.7,0.5,16,0.8,26.7,1.5
				c1.7,0.1,2.6-1.2,2.6-2.9c0-2.5-0.9-3.5-2.6-3.8c-5.9-1.4-8.9-2.1-14.9-3.5c-10-1.9-15.9-10.2-15.3-20.3c0-4.9,0-7.3,0.1-12.1
				c-0.7-12,9.1-19.6,20.6-16.4c9.2,1.9,18.4,4,27.5,6.2c2.5,0.6,3.5,2,3.5,4.5c0,4.8,0,7.2,0,12c0,2.5-1.1,3.4-3.5,3
				c-9.2-1.6-13.8-2.4-23-3.9c-1.7-0.3-2.7,0.9-2.7,2.9s1,3.4,2.7,3.9c5.9,1.7,8.8,2.5,14.7,4.2c9.3,2.8,15.4,7.7,15.4,18.8
				c0,4.2,0,6.3,0,10.4c0.4,11.6-10,17.9-20.6,17.4C381.9,96.4,371.4,96.3,360.9,96.3z"/>
		</g>
	</g>
</g>
</svg>
