<?xml version="1.0" encoding="utf-8"?>
<!-- Generator: Adobe Illustrator 22.0.0, SVG Export Plug-In . SVG Version: 6.00 Build 0)  -->
<svg version="1.1" xmlns="http://www.w3.org/2000/svg" xmlns:xlink="http://www.w3.org/1999/xlink" x="0px" y="0px" width="390px"
	 height="130px" viewBox="0 0 390 130" style="enable-background:new 0 0 390 130;" xml:space="preserve">
<style type="text/css">
	.st0{fill:#FFD297;stroke:#AC1C12;stroke-width:20;stroke-miterlimit:10;}
	.st1{fill:#FFD297;}
</style>
<g id="Layer_2">
</g>
<g id="Layer_1">
	<g>
		<g>
			<g>
				<path class="st0" d="M18.5,85.6c-2,0-3-0.9-3.1-2.9c-1.5-17.7-2.7-35.2-3.1-52.9c0-2,0.9-3.1,2.9-3.4c5-0.8,7.5-1.1,12.6-1.9
					c2-0.3,2.9,0.5,2.9,2.7c0.1,7.4,0.2,11.1,0.6,18.6c5.4-0.5,8.1-0.7,13.6-1.2c-0.3-7.6-0.5-11.5-0.5-19.1c0-2.2,0.9-3.3,2.9-3.5
					c5-0.6,7.6-0.9,12.6-1.5c2-0.2,2.9,0.7,3,2.9C63,43,64.2,62.6,65.2,82.2c0.1,2.3-0.7,3.2-2.7,3.3c-5,0-7.5,0-12.4,0
					c-2,0-2.9-0.9-3.1-3.1c-0.5-7.7-0.8-11.6-1.2-19.4c-5.4,0.3-8.1,0.4-13.5,0.7c0.5,7.6,0.8,11.4,1.3,18.9c0.2,2.1-0.7,3-2.7,3
					C25.9,85.6,23.5,85.6,18.5,85.6z"/>
				<path class="st0" d="M97.3,86.8c-11.9-0.2-25.7-4.4-25.8-18.7c-0.5-10.4-1-20.9-1.4-31.4c-1-14.5,13-20,25-21.3
					c12.1-1.3,26.5,3.4,25.6,18.1c0.3,11.1,0.6,22.2,0.9,33.3C123.2,81.4,109.3,87,97.3,86.8z M96.7,68.5c5.9-0.1,6.7-2.1,6.6-4.7
					c-0.4-10.3-0.6-15.5-0.9-25.8c-0.1-2.5-1-4.4-7-4c-5.9,0.4-6.8,2.3-6.7,4.8c0.3,10.2,0.6,15.2,1,25.4
					C89.8,66.8,90.9,68.6,96.7,68.5z"/>
				<path class="st0" d="M142.5,85.3c-4.7,0-7.1,0-11.8,0c-2,0-2.9-1.1-2.9-3.5c-0.1-10.4-0.3-15.5-0.6-25.9
					C127.1,52,128,47,130,40.1c2.6-9,3.9-13.6,6.7-22.7c0.6-2.3,1.9-3.4,4.2-3.5c8.8-0.4,13.2-0.6,22-0.8c2.1-0.1,3.4,0.9,4.1,3.2
					c2.9,9.1,4.4,13.6,7.3,22.7c2.3,7,3.3,12,3.3,16.1c0.1,10.6,0.1,15.9,0.1,26.6c0,2.5-0.9,3.6-2.9,3.6c-4.8,0-7.3,0-12.1,0
					c-2.2,0-3.1-1.1-3.1-3.6c0-5.6-0.1-8.4-0.1-14c-5.7,0-8.5,0.1-14.2,0.1c0.1,5.6,0.1,8.3,0.2,13.9
					C145.4,84.2,144.5,85.3,142.5,85.3z M145.7,49.7c5.1-0.1,7.6-0.2,12.7-0.2c-1.6-6.1-2.4-9.1-4.1-15.1c-0.4-1.2-0.9-1.7-1.6-1.7
					c-0.8,0-1.2,0-2,0.1c-0.7,0-1.1,0.5-1.5,1.7C147.7,40.6,147,43.6,145.7,49.7z"/>
				<path class="st0" d="M203.1,85.3c-12.8,0.3-19.8-8.1-19.8-20.6c0-10.5-0.1-21-0.2-31.4c-0.1-12.6,7.2-20.9,20.1-20.6
					c8.2,0.1,12.3,0.1,20.5,0.3c2,0,2.9,1.2,2.9,3.7c0,4.9,0,7.3-0.1,12.1c0,2.5-0.9,3.6-3,3.6c-6.8-0.1-10.2-0.2-17-0.2
					c-3.4,0-5,1.6-5,5c0,9.6,0,14.5-0.1,24.1c0,3.4,1.2,4.9,3.7,4.9c3.1,0,4.7,0,7.8,0c0-6.3,0.1-9.4,0.1-15.7
					c0-2.5,0.9-3.6,2.9-3.6c5,0,7.5,0.1,12.6,0.2c2,0,2.9,1.1,2.9,3.7c-0.2,10.3-0.3,20.6-0.4,30.9c0,2.5-0.9,3.6-2.9,3.6
					C218.3,85.3,213.2,85.3,203.1,85.3z"/>
				<path class="st0" d="M236.5,81.7c0-4.8,0.1-7.1,0.1-11.9c0-2.5,0.9-3.6,2.9-3.6c3.2,0,4.8,0.1,8,0.1c0.2-11.1,0.5-22.2,0.7-33.4
					c-3.2-0.1-4.8-0.2-8.1-0.2c-2-0.1-2.9-1.2-2.9-3.7c0.1-4.8,0.1-7.3,0.1-12.1c0-2.5,0.9-3.6,3-3.5c11.6,0.5,23.2,1.1,34.8,1.8
					c2,0.1,2.9,1.3,2.9,3.7c0,4.7-0.1,7-0.2,11.7c-0.1,2.4-1,3.4-3,3.3c-3.2-0.2-4.8-0.2-7.9-0.4c-0.3,11-0.6,21.9-0.9,32.9
					c3.1,0.1,4.7,0.1,7.9,0.1c2,0,2.9,1.1,2.8,3.5c-0.1,4.6-0.2,6.9-0.3,11.5c-0.1,2.4-1,3.5-3,3.5c-11.4,0-22.8,0-34.1,0
					C237.4,85.3,236.5,84.2,236.5,81.7z"/>
				<path class="st0" d="M285.9,85.4c-2,0-2.9-1.1-2.8-3.5c0.6-20.8,1.4-41.6,1.8-62.4c0-2.4,0.9-3.4,3-3.2
					c12.6,1,25.3,2.2,37.9,3.5c2,0.2,2.9,1.3,2.9,3.6c0,4.3-0.1,6.4-0.2,10.6c-0.1,2.3-1,3.2-3,3c-9-0.7-13.5-1.1-22.5-1.7
					c-0.1,2.9-0.1,4.4-0.2,7.3c6.4,0.4,9.5,0.6,15.9,1c2,0.1,2.9,1.2,2.8,3.5c-0.1,3.9-0.2,5.9-0.4,9.8c-0.1,2.3-1,3.3-3.1,3.2
					c-6.3-0.3-9.5-0.4-15.8-0.6c-0.1,3.2-0.2,4.9-0.3,8.1c8.9,0.2,13.4,0.4,22.4,0.6c2,0.1,2.9,1.1,2.7,3.4
					c-0.2,4.2-0.4,6.4-0.6,10.6c-0.1,2.3-1.1,3.3-3.1,3.2C310.7,85.4,298.3,85.4,285.9,85.4z"/>
				<path class="st0" d="M333.7,85.5c-2,0-2.8-1-2.7-3.2c0.3-4.2,0.4-6.3,0.7-10.5c0.1-2.2,1.1-3.2,3.1-3.1
					c8.7,0.3,13.1,0.5,21.8,0.8c1.4,0.1,2.2-1,2.3-2.4c0.1-2-0.5-2.8-1.9-3c-4.8-1-7.2-1.5-12.1-2.4c-7.6-1.6-12.3-5.5-11.9-15.6
					c0.1-3.8,0.2-5.7,0.3-9.5c0.3-10.3,6.5-15.2,17.1-13.8c9.1,1.2,13.7,1.8,22.8,3.2c2,0.3,2.9,1.3,2.9,3.4c0,3.9-0.1,5.9-0.2,9.8
					c-0.1,2.1-1,2.9-3,2.6c-7.6-0.8-11.4-1.2-18.9-2c-1.4-0.1-2.2,0.8-2.3,2.4c-0.1,1.6,0.7,2.7,2.1,3c4.8,1.1,7.2,1.7,12,2.8
					c7.6,1.9,12.5,5.6,11.9,14.8c-0.2,3.4-0.4,5.1-0.7,8.6c-0.8,9.3-7.7,14.3-18,14.2C348.9,85.5,343.8,85.5,333.7,85.5z"/>
			</g>
		</g>
	</g>
	<g>
		<path class="st1" d="M28.2,121.9c-0.6,0-0.9-0.3-0.9-0.9v-5.2c0-0.7,0.3-0.9,0.9-0.9h5.1c0.6,0,0.9,0.3,0.9,0.9v5.2
			c0,0.6-0.3,0.9-0.9,0.9H28.2z"/>
		<path class="st1" d="M43.3,127.5c-0.6,0-0.9-0.3-0.9-0.9v-3c0-0.6,0.3-0.9,0.9-0.9h6.8c0.4,0,0.7-0.3,0.7-0.7
			c0-0.6-0.2-0.8-0.7-0.9l-3.8-0.5c-2.4-0.4-3.9-1.4-3.9-4.2v-2.7c0-2.9,2-4.5,5.3-4.5h7.1c0.6,0,0.9,0.3,0.9,0.9v3
			c0,0.6-0.3,0.9-0.9,0.9h-5.9c-0.4,0-0.7,0.3-0.7,0.8c0,0.5,0.3,0.8,0.7,0.8l3.8,0.5c2.4,0.4,4,1.4,4,4.2v2.7c0,2.9-2,4.5-5.3,4.5
			H43.3z"/>
		<path class="st1" d="M63.5,127.5h-3.7c-0.6,0-0.9-0.3-0.9-0.9v-6.7c0-1,0.3-2.3,1-4.1l2.2-5.8c0.2-0.6,0.6-0.8,1.3-0.8h6.8
			c0.7,0,1.1,0.3,1.3,0.8l2.2,5.8c0.7,1.8,1,3,1,4.1v6.7c0,0.6-0.3,0.9-0.9,0.9h-3.8c-0.7,0-1-0.3-1-0.9V123h-4.5v3.6
			C64.5,127.2,64.2,127.5,63.5,127.5z M64.7,118.4h4l-1.2-3.9c-0.1-0.3-0.3-0.4-0.5-0.4h-0.6c-0.2,0-0.4,0.1-0.5,0.4L64.7,118.4z"/>
		<path class="st1" d="M78.7,127.5c-0.6,0-0.9-0.3-0.9-0.9v-16.4c0-0.6,0.3-0.9,0.9-0.9h2.6c0.7,0,1.1,0.2,1.5,0.7l4.9,5.6v-5.4
			c0-0.6,0.3-0.9,0.9-0.9h3.8c0.6,0,0.9,0.3,0.9,0.9v16.4c0,0.6-0.3,0.9-0.9,0.9h-3.8c-0.6,0-0.9-0.3-0.9-0.9v-3.1l-4.3-5.3v8.4
			c0,0.6-0.3,0.9-0.9,0.9H78.7z"/>
		<path class="st1" d="M97.8,127.5c-0.6,0-0.9-0.3-0.9-0.9v-16.4c0-0.6,0.3-0.9,0.9-0.9h8.6c4.3,0,6.2,1.6,6.2,5.2v7.9
			c0,3.5-2,5.2-6.2,5.2H97.8z M102.7,122.7h3c0.8,0,1.2-0.4,1.2-1.2v-6.2c0-0.8-0.4-1.2-1.2-1.2h-3V122.7z"/>
		<path class="st1" d="M132.7,109.2c0.6,0,0.9,0.3,0.9,0.9v9.8c0,1.1,0,1.9-0.5,3.1l-1.3,3.5c-0.2,0.5-0.5,0.9-1,0.9h-3.4
			c-0.6,0-1-0.2-1.2-0.8l-1.2-4.1c-0.1-0.3-0.3-0.4-0.5-0.4h-0.2c-0.2,0-0.4,0.1-0.5,0.4l-1.2,4.1c-0.2,0.5-0.5,0.8-1.1,0.8h-3.3
			c-0.6,0-0.9-0.4-1.1-0.9l-1.3-3.5c-0.5-1.2-0.5-2.1-0.5-3.1v-9.8c0-0.6,0.3-0.9,0.9-0.9h3.9c0.6,0,0.9,0.3,0.9,0.9v9.3l1.5-3.2
			c0.3-0.6,0.7-0.8,1.3-0.8h1.1c0.7,0,1.1,0.2,1.3,0.8l1.5,3.2v-9.3c0-0.6,0.3-0.9,0.9-0.9H132.7z"/>
		<path class="st1" d="M136.5,126.5v-3c0-0.6,0.3-0.9,0.9-0.9h2.5v-8.5h-2.5c-0.6,0-0.9-0.3-0.9-0.9v-3.1c0-0.6,0.3-0.9,0.9-0.9
			h10.8c0.6,0,0.9,0.3,0.9,0.9v3.1c0,0.6-0.3,0.9-0.9,0.9h-2.5v8.5h2.5c0.6,0,0.9,0.3,0.9,0.9v3c0,0.6-0.3,0.9-0.9,0.9h-10.8
			C136.8,127.5,136.5,127.2,136.5,126.5z"/>
		<path class="st1" d="M158.2,127.5c-4.3,0-6.2-1.6-6.2-5.2v-7.9c0-3.6,2-5.2,6.2-5.2h6.2c0.6,0,0.9,0.3,0.9,0.9v3.1
			c0,0.6-0.3,0.9-0.9,0.9h-5.1c-1.1,0-1.5,0.4-1.5,1.3v6c0,0.8,0.5,1.2,1.5,1.2h5.1c0.6,0,0.9,0.3,0.9,0.9v3c0,0.6-0.3,0.9-0.9,0.9
			H158.2z"/>
		<path class="st1" d="M169.1,127.5c-0.6,0-0.9-0.3-0.9-0.9v-16.4c0-0.6,0.3-0.9,0.9-0.9h3.9c0.6,0,0.9,0.3,0.9,0.9v5.5h4.2v-5.5
			c0-0.6,0.3-0.9,0.9-0.9h3.9c0.6,0,0.9,0.3,0.9,0.9v16.4c0,0.6-0.3,0.9-0.9,0.9h-3.9c-0.6,0-0.9-0.3-0.9-0.9v-5.6H174v5.6
			c0,0.6-0.3,0.9-0.9,0.9H169.1z"/>
		<path class="st1" d="M188.4,127.5c-0.6,0-0.9-0.3-0.9-0.9v-16.4c0-0.6,0.3-0.9,0.9-0.9h11.8c0.6,0,0.9,0.3,0.9,0.9v3
			c0,0.6-0.3,0.9-0.9,0.9h-7v2h4.9c0.6,0,0.9,0.3,0.9,0.9v2.7c0,0.6-0.3,0.9-0.9,0.9h-4.9v2.2h7c0.6,0,0.9,0.3,0.9,0.9v3
			c0,0.6-0.3,0.9-0.9,0.9H188.4z"/>
		<path class="st1" d="M204.5,127.5c-0.6,0-0.9-0.3-0.9-0.9v-3c0-0.6,0.3-0.9,0.9-0.9h6.8c0.4,0,0.7-0.3,0.7-0.7
			c0-0.6-0.2-0.8-0.7-0.9l-3.8-0.5c-2.4-0.4-3.9-1.4-3.9-4.2v-2.7c0-2.9,2-4.5,5.3-4.5h7.1c0.6,0,0.9,0.3,0.9,0.9v3
			c0,0.6-0.3,0.9-0.9,0.9h-5.9c-0.4,0-0.7,0.3-0.7,0.8c0,0.5,0.3,0.8,0.7,0.8l3.8,0.5c2.4,0.4,4,1.4,4,4.2v2.7c0,2.9-2,4.5-5.3,4.5
			H204.5z"/>
		<path class="st1" d="M230.4,127.5h-3.7c-0.6,0-0.9-0.3-0.9-0.9v-6.7c0-1,0.3-2.3,1-4.1l2.2-5.8c0.2-0.6,0.6-0.8,1.3-0.8h6.8
			c0.7,0,1.1,0.3,1.3,0.8l2.2,5.8c0.7,1.8,1,3,1,4.1v6.7c0,0.6-0.3,0.9-0.9,0.9h-3.8c-0.7,0-1-0.3-1-0.9V123h-4.5v3.6
			C231.3,127.2,231,127.5,230.4,127.5z M231.6,118.4h4l-1.2-3.9c-0.1-0.3-0.3-0.4-0.5-0.4h-0.6c-0.2,0-0.4,0.1-0.5,0.4L231.6,118.4z
			"/>
		<path class="st1" d="M245.6,127.5c-0.6,0-0.9-0.3-0.9-0.9v-16.4c0-0.6,0.3-0.9,0.9-0.9h2.6c0.7,0,1.1,0.2,1.5,0.7l4.9,5.6v-5.4
			c0-0.6,0.3-0.9,0.9-0.9h3.8c0.6,0,0.9,0.3,0.9,0.9v16.4c0,0.6-0.3,0.9-0.9,0.9h-3.8c-0.6,0-0.9-0.3-0.9-0.9v-3.1l-4.3-5.3v8.4
			c0,0.6-0.3,0.9-0.9,0.9H245.6z"/>
		<path class="st1" d="M264.7,127.5c-0.6,0-0.9-0.3-0.9-0.9v-16.4c0-0.6,0.3-0.9,0.9-0.9h8.6c4.3,0,6.2,1.6,6.2,5.2v7.9
			c0,3.5-2,5.2-6.2,5.2H264.7z M269.5,122.7h3c0.8,0,1.2-0.4,1.2-1.2v-6.2c0-0.8-0.4-1.2-1.2-1.2h-3V122.7z"/>
		<path class="st1" d="M288.9,127.5c-0.6,0-0.9-0.3-0.9-0.9v-3c0-0.6,0.3-0.9,0.9-0.9h6.8c0.4,0,0.7-0.3,0.7-0.7
			c0-0.6-0.2-0.8-0.7-0.9l-3.8-0.5c-2.4-0.4-3.9-1.4-3.9-4.2v-2.7c0-2.9,2-4.5,5.3-4.5h7.1c0.6,0,0.9,0.3,0.9,0.9v3
			c0,0.6-0.3,0.9-0.9,0.9h-5.9c-0.4,0-0.7,0.3-0.7,0.8c0,0.5,0.3,0.8,0.7,0.8l3.8,0.5c2.4,0.4,4,1.4,4,4.2v2.7c0,2.9-2,4.5-5.3,4.5
			H288.9z"/>
		<path class="st1" d="M312.6,127.8c-6.3,0-7.8-2.1-7.8-5.2v-12.6c0-0.6,0.3-0.9,0.9-0.9h4c0.6,0,0.9,0.3,0.9,0.9v11.6
			c0,0.7,0.3,1.2,2.1,1.2c1.8,0,2.1-0.5,2.1-1.2v-11.6c0-0.6,0.3-0.9,0.9-0.9h3.9c0.6,0,0.9,0.3,0.9,0.9v12.6
			C320.5,125.8,318.9,127.8,312.6,127.8z"/>
		<path class="st1" d="M324.7,127.5c-0.6,0-0.9-0.3-0.9-0.9v-16.4c0-0.6,0.3-0.9,0.9-0.9h8.1c3.3,0,4.9,1.2,4.9,3.9v1.2
			c0,1.4-0.5,2.3-1.5,2.7c2.2,0.2,3.2,1.4,3.2,3.9v2.3c0,2.8-1.5,4.2-4.9,4.2H324.7z M329.5,116.2h2.2c0.7,0,1-0.3,1-1v-0.7
			c0-0.7-0.3-1-1-1h-2.2V116.2z M329.5,123.1h3.3c0.7,0,1-0.3,1-1v-1c0-0.7-0.3-1-1-1h-3.3V123.1z"/>
		<path class="st1" d="M342.7,127.5c-0.6,0-0.9-0.3-0.9-0.9v-3c0-0.6,0.3-0.9,0.9-0.9h6.8c0.4,0,0.7-0.3,0.7-0.7
			c0-0.6-0.2-0.8-0.7-0.9l-3.8-0.5c-2.4-0.4-3.9-1.4-3.9-4.2v-2.7c0-2.9,2-4.5,5.3-4.5h7.1c0.6,0,0.9,0.3,0.9,0.9v3
			c0,0.6-0.3,0.9-0.9,0.9h-5.9c-0.4,0-0.7,0.3-0.7,0.8c0,0.5,0.3,0.8,0.7,0.8l3.8,0.5c2.4,0.4,4,1.4,4,4.2v2.7c0,2.9-2,4.5-5.3,4.5
			H342.7z"/>
		<path class="st1" d="M364.7,121.9c-0.6,0-0.9-0.3-0.9-0.9v-5.2c0-0.7,0.3-0.9,0.9-0.9h5.1c0.6,0,0.9,0.3,0.9,0.9v5.2
			c0,0.6-0.3,0.9-0.9,0.9H364.7z"/>
	</g>
	<g>
		<g>
			<g>
				<path class="st1" d="M18.5,85.6c-2,0-3-0.9-3.1-2.9c-1.5-17.7-2.7-35.2-3.1-52.9c0-2,0.9-3.1,2.9-3.4c5-0.8,7.5-1.1,12.6-1.9
					c2-0.3,2.9,0.5,2.9,2.7c0.1,7.4,0.2,11.1,0.6,18.6c5.4-0.5,8.1-0.7,13.6-1.2c-0.3-7.6-0.5-11.5-0.5-19.1c0-2.2,0.9-3.3,2.9-3.5
					c5-0.6,7.6-0.9,12.6-1.5c2-0.2,2.9,0.7,3,2.9C63,43,64.2,62.6,65.2,82.2c0.1,2.3-0.7,3.2-2.7,3.3c-5,0-7.5,0-12.4,0
					c-2,0-2.9-0.9-3.1-3.1c-0.5-7.7-0.8-11.6-1.2-19.4c-5.4,0.3-8.1,0.4-13.5,0.7c0.5,7.6,0.8,11.4,1.3,18.9c0.2,2.1-0.7,3-2.7,3
					C25.9,85.6,23.5,85.6,18.5,85.6z"/>
				<path class="st1" d="M97.3,86.8c-11.9-0.2-25.7-4.4-25.8-18.7c-0.5-10.4-1-20.9-1.4-31.4c-1-14.5,13-20,25-21.3
					c12.1-1.3,26.5,3.4,25.6,18.1c0.3,11.1,0.6,22.2,0.9,33.3C123.2,81.4,109.3,87,97.3,86.8z M96.7,68.5c5.9-0.1,6.7-2.1,6.6-4.7
					c-0.4-10.3-0.6-15.5-0.9-25.8c-0.1-2.5-1-4.4-7-4c-5.9,0.4-6.8,2.3-6.7,4.8c0.3,10.2,0.6,15.2,1,25.4
					C89.8,66.8,90.9,68.6,96.7,68.5z"/>
				<path class="st1" d="M142.5,85.3c-4.7,0-7.1,0-11.8,0c-2,0-2.9-1.1-2.9-3.5c-0.1-10.4-0.3-15.5-0.6-25.9
					C127.1,52,128,47,130,40.1c2.6-9,3.9-13.6,6.7-22.7c0.6-2.3,1.9-3.4,4.2-3.5c8.8-0.4,13.2-0.6,22-0.8c2.1-0.1,3.4,0.9,4.1,3.2
					c2.9,9.1,4.4,13.6,7.3,22.7c2.3,7,3.3,12,3.3,16.1c0.1,10.6,0.1,15.9,0.1,26.6c0,2.5-0.9,3.6-2.9,3.6c-4.8,0-7.3,0-12.1,0
					c-2.2,0-3.1-1.1-3.1-3.6c0-5.6-0.1-8.4-0.1-14c-5.7,0-8.5,0.1-14.2,0.1c0.1,5.6,0.1,8.3,0.2,13.9
					C145.4,84.2,144.5,85.3,142.5,85.3z M145.7,49.7c5.1-0.1,7.6-0.2,12.7-0.2c-1.6-6.1-2.4-9.1-4.1-15.1c-0.4-1.2-0.9-1.7-1.6-1.7
					c-0.8,0-1.2,0-2,0.1c-0.7,0-1.1,0.5-1.5,1.7C147.7,40.6,147,43.6,145.7,49.7z"/>
				<path class="st1" d="M203.1,85.3c-12.8,0.3-19.8-8.1-19.8-20.6c0-10.5-0.1-21-0.2-31.4c-0.1-12.6,7.2-20.9,20.1-20.6
					c8.2,0.1,12.3,0.1,20.5,0.3c2,0,2.9,1.2,2.9,3.7c0,4.9,0,7.3-0.1,12.1c0,2.5-0.9,3.6-3,3.6c-6.8-0.1-10.2-0.2-17-0.2
					c-3.4,0-5,1.6-5,5c0,9.6,0,14.5-0.1,24.1c0,3.4,1.2,4.9,3.7,4.9c3.1,0,4.7,0,7.8,0c0-6.3,0.1-9.4,0.1-15.7
					c0-2.5,0.9-3.6,2.9-3.6c5,0,7.5,0.1,12.6,0.2c2,0,2.9,1.1,2.9,3.7c-0.2,10.3-0.3,20.6-0.4,30.9c0,2.5-0.9,3.6-2.9,3.6
					C218.3,85.3,213.2,85.3,203.1,85.3z"/>
				<path class="st1" d="M236.5,81.7c0-4.8,0.1-7.1,0.1-11.9c0-2.5,0.9-3.6,2.9-3.6c3.2,0,4.8,0.1,8,0.1c0.2-11.1,0.5-22.2,0.7-33.4
					c-3.2-0.1-4.8-0.2-8.1-0.2c-2-0.1-2.9-1.2-2.9-3.7c0.1-4.8,0.1-7.3,0.1-12.1c0-2.5,0.9-3.6,3-3.5c11.6,0.5,23.2,1.1,34.8,1.8
					c2,0.1,2.9,1.3,2.9,3.7c0,4.7-0.1,7-0.2,11.7c-0.1,2.4-1,3.4-3,3.3c-3.2-0.2-4.8-0.2-7.9-0.4c-0.3,11-0.6,21.9-0.9,32.9
					c3.1,0.1,4.7,0.1,7.9,0.1c2,0,2.9,1.1,2.8,3.5c-0.1,4.6-0.2,6.9-0.3,11.5c-0.1,2.4-1,3.5-3,3.5c-11.4,0-22.8,0-34.1,0
					C237.4,85.3,236.5,84.2,236.5,81.7z"/>
				<path class="st1" d="M285.9,85.4c-2,0-2.9-1.1-2.8-3.5c0.6-20.8,1.4-41.6,1.8-62.4c0-2.4,0.9-3.4,3-3.2
					c12.6,1,25.3,2.2,37.9,3.5c2,0.2,2.9,1.3,2.9,3.6c0,4.3-0.1,6.4-0.2,10.6c-0.1,2.3-1,3.2-3,3c-9-0.7-13.5-1.1-22.5-1.7
					c-0.1,2.9-0.1,4.4-0.2,7.3c6.4,0.4,9.5,0.6,15.9,1c2,0.1,2.9,1.2,2.8,3.5c-0.1,3.9-0.2,5.9-0.4,9.8c-0.1,2.3-1,3.3-3.1,3.2
					c-6.3-0.3-9.5-0.4-15.8-0.6c-0.1,3.2-0.2,4.9-0.3,8.1c8.9,0.2,13.4,0.4,22.4,0.6c2,0.1,2.9,1.1,2.7,3.4
					c-0.2,4.2-0.4,6.4-0.6,10.6c-0.1,2.3-1.1,3.3-3.1,3.2C310.7,85.4,298.3,85.4,285.9,85.4z"/>
				<path class="st1" d="M333.7,85.5c-2,0-2.8-1-2.7-3.2c0.3-4.2,0.4-6.3,0.7-10.5c0.1-2.2,1.1-3.2,3.1-3.1
					c8.7,0.3,13.1,0.5,21.8,0.8c1.4,0.1,2.2-1,2.3-2.4c0.1-2-0.5-2.8-1.9-3c-4.8-1-7.2-1.5-12.1-2.4c-7.6-1.6-12.3-5.5-11.9-15.6
					c0.1-3.8,0.2-5.7,0.3-9.5c0.3-10.3,6.5-15.2,17.1-13.8c9.1,1.2,13.7,1.8,22.8,3.2c2,0.3,2.9,1.3,2.9,3.4c0,3.9-0.1,5.9-0.2,9.8
					c-0.1,2.1-1,2.9-3,2.6c-7.6-0.8-11.4-1.2-18.9-2c-1.4-0.1-2.2,0.8-2.3,2.4c-0.1,1.6,0.7,2.7,2.1,3c4.8,1.1,7.2,1.7,12,2.8
					c7.6,1.9,12.5,5.6,11.9,14.8c-0.2,3.4-0.4,5.1-0.7,8.6c-0.8,9.3-7.7,14.3-18,14.2C348.9,85.5,343.8,85.5,333.7,85.5z"/>
			</g>
		</g>
	</g>
	<g>
	</g>
	<g>
	</g>
	<g>
	</g>
	<g>
	</g>
	<g>
	</g>
	<g>
	</g>
	<g>
	</g>
	<g>
	</g>
	<g>
	</g>
	<g>
	</g>
	<g>
	</g>
	<g>
	</g>
	<g>
	</g>
	<g>
	</g>
	<g>
	</g>
</g>
</svg>
