<?xml version="1.0" encoding="utf-8"?>
<!-- Generator: Adobe Illustrator 22.0.0, SVG Export Plug-In . SVG Version: 6.00 Build 0)  -->
<svg version="1.1" xmlns="http://www.w3.org/2000/svg" xmlns:xlink="http://www.w3.org/1999/xlink" x="0px" y="0px" width="64px"
	 height="42px" viewBox="0 0 64 42" style="enable-background:new 0 0 64 42;" xml:space="preserve">
<style type="text/css">
	.st0{fill:#FFD297;}
	.st1{fill:#FF3324;}
</style>
<g id="Layer_2">
</g>
<g id="Layer_1">
	<path class="st0" d="M63,4.2c0-1.7-1.3-3-3-3h-44c-1.7,0-3.2,1.1-3.7,2.7l-2.2,13.5l-6.7,3.6C1.9,22,1,24.7,1,26.5v8.3h4.1
		c0,0,0.7,0,2,0c0.2,3.4,3.1,6.1,6.6,6.1c3.5,0,6.4-2.7,6.6-6.2c7.5,0,16.6,0,24.4,0c0.2,3.4,3.1,6.1,6.6,6.1c3.5,0,6.3-2.7,6.6-6.1
		c3.2,0,5.1,0,5.1,0V4.2z"/>
</g>
</svg>
