<svg xmlns="http://www.w3.org/2000/svg" viewBox="0 0 286.89 390">
  <title>logo-blue</title>
  <g>
    <polygon points="150.64 56.05 135.89 56.05 130.62 0 155.9 0 150.64 56.05" style="fill: #2d4656"/>
    <polygon points="223.83 74.8 211.75 66.34 232.27 27.85 252.97 42.35 223.83 74.8" style="fill: #2d4656"/>
    <polygon points="62.33 71.89 73.54 62.31 49.41 25.98 30.19 42.41 62.33 71.89" style="fill: #2d4656"/>
    <g>
      <path d="M116,155.1l.25,1.18-.59.93-.93.43-1.1.16h-1.19l-1.94-.16-1.27-.09h-3.81l-5.25.34-1.1-.34-.51-.68-.42-.93-2.62-7.11L95,148l-.76-.17-1-.09-5.08-.34H86.74l-6.34-.16-5.08-.09H74.05l-1.27.09h-3.9l-1.1.16-.67.43-.51,1-1.95,5.76-.5,1.35-.94,1.1-1.27.51-1.35-.08-4.91-.26H54.33l-5.25.34-1.1.09-1-.51-.67-.93.08-1.1.17-.68.51-1.36,1.18-2.62.51-1.27,2.12-4.74.5-1.18,2.21-4.74.5-1.27,2-4.57.51-1.27,2.28-4.74.51-1.19,3-6.94,2.37-5.08.59-1.35,1.86-3.81.59-1.35,1.61-3.9.51-1.27,1.52-3.47.43-.93.84-.5L74,96.61l3.9-.17h6.6l3.89.09,1.44.25.93.68.42,1.1,1.19,3.3.51,1.27,2.11,4,.51,1.18,1.86,4.15.51,1.18,1.52,4.32.51,1.18,1.86,4.07.51,1.18,1.86,4.15.51,1.19,1.7,4.23.5,1.18,2.63,5.25,2,4,.59,1.18,2.29,5.33ZM87.76,131.23l-.34-1.1-1.86-5.76-.42-1.27-1.7-5L83,117l-.85-.59-1.1-.26-.93.26-.84.84L77,123l-.51,1.27L74.3,130l-.25,1.27.25,1,.93.43,1.19.17h5.33l4,.25,1.1-.34.68-.67Z" transform="translate(-1.55)" style="fill: #2d4656"/>
      <path d="M181.79,157.13l-1.1.34h-5.92l-4.66-.09h-1.35l-3.81.17h-1.1l-.76-.34-.68-.67-2.71-3.81-.76-1-2.71-3.64-.76-1-2.37-3.9-.76-1-2.71-3.64-.59-.68-.51-.25-1-.09-2.7-.17-1.1.09-.68.5-.26,1.11-.16,4.65.08,1.35.34,4.74.08,1.36.09,2v1.35l-.09,1.36-.17,1-.42.43-.93.25h-1.35l-4.07-.25-3.89.25h-1.35l-3.9-.25-1-.17-.51-.34-.17-.85-.08-1.18-.09-1.27.17-2.2.08-1.36.34-4.57V144l-.25-4.57-.09-1.36-.08-4.48v-1.36l.25-4.57v-1.35l-.25-4.57v-1.36l.25-4.57v-1.35l.17-4.49v-1.35l-.08-4.57v-1.35l-.17-2.8.08-1.27.09-.5.25-1.11.51-.67,1-.26.67-.08,1.27-.09,3.81.17,10.07.34L149,96.1h1.35l5.59.34h3.22l1.43.09,1.27.25,1.78.51,1.27.42,1.27.51,1.35.51,1.27.59,1.1.68,1.61,1.1.93.76.85.85.85,1,1.18,1.69.76,1.1,1,1.61.59,1.19.59,1.27.43,1.35.25,1.36.08,1.35.17,1.86v1.36l-.08,1.35-.17,1.44-.25,1.44-.34,1.35-.51,1.27-.59,1.27-.76,1.27-.77,1.1-.76,1-.76.93-1.35,1.35-.93.76-1.7.93-1,.6-1.1.59-1.1.25-.68.26.34.67,3,4.32.77,1,3,4.14.85,1,3,4.23.84,1,2.63,3,.76.93.42.94Zm-25.64-32.59,1.86-.34,1.1-.42,1-.59.84-1,.59-1.27.34-1.35.09-1.36-.09-1.43-.17-1.44-.33-1.27-.6-1.27-.76-1-.93-.76-1.18-.51-1.87-.42-1.35-.17-4.23-.09h-1.36l-4.31.26-1,.08-.59.26-.51.51-.08.93.08,1.94.17,1.36.17,1.44.08,1.43-.17,4.66.09.93.17.51.59.25,1,.17,4.4.34h1.35Z" transform="translate(-1.55)" style="fill: #2d4656"/>
      <path d="M239.26,103l-.08,1.27.08,2.54-.08,1.36-.09.67-.17,1-.25.59-.51.43-1,.16h-1.36l-2.54-.25-1.35-.08L228,111h-1.36l-2.11-.17h-1.27l-.6.09-.84.25-.34.51-.09,1.1-.33,5v1.35l.33,5.08-.08,1.36-.34,5.08L220.9,132l.17,5v7.79l-.17,5L221,151l.42,3.81.09,1.36-.25,1-.43.43-1.1.16-1.61-.08-2.11-.25-1.44-.09-3.81.26h-1.36l-3.8-.26-1-.08-.51-.26-.17-.93v-1.44l.26-3.55.08-1.36v-6.34l.09-5.08V137l.08-5v-1.35l-.34-5.08L204,124.2v-6.43l-.17-5v-1.19l-.25-.67-.85-.17h-1.27l-2.71.17H197.2l-2.29-.17-1.44-.09-1.44.09-1.94.08h-1.27l-.68-.08-.93-.17-.51-.34-.34-.51-.17-.85v-.59l-.08-1.35.17-2.54v-1.27L186,99.91l.09-1.35.25-1.1.34-.59.51-.26.85-.17H190l3.13.26h1.36l4.91-.34h1.35l5,.42h1.35l6.26-.42,4.91.08h1.36l6.34-.08h6.27l2.79-.17,1.44.08.68.09,1,.17.59.34.43.59.17,1v.6l.08,1.27Z" transform="translate(-1.55)" style="fill: #2d4656"/>
    </g>
    <g>
      <path d="M276.28,180.89H1.55v12.32H17.18l11.17,36a10.43,10.43,0,0,0,10,7.33h213a10.43,10.43,0,0,0,9.95-7.33l11.17-36h16V180.89ZM146.83,209.22l-.1,1.08-.09.7-.28,1.39-.09,1.08-.1.69-.14.75-.18.7-.47,1-.33.65-1.25,2.1-.42.61-.47.6-.47.51-.74.8-.52.46-.6.47-.56.42-.84.56-.61.37-.69.37-.66.28-.93.38-.7.18-1.49.47-.79.23-.75.19-.79.18-.79.14-.8.05h-2.51l-1.59-.09-1.54-.19-.65-.14-.7-.19-2.52-.83-.74-.24-.79-.32-1.5-.66-.69-.37-.7-.42-.61-.46-.61-.52-.56-.6L114,221l-1.26-1.26-.46-.56-.47-.6-.37-.61L111,217l-.69-2.1-.28-1-.14-.7-.14-.74-.14-.7-.14-1,0-.7,0-.79v-.79l0-.8,0-.83.09-.8.14-.79.19-.79.23-.79.23-.7.28-.75.33-1.07.32-.75.19-.42.37-.7.66-1,.46-.65.24-.38.55-.56.8-.65.6-.46.61-.42,1.4-.94.6-.37.66-.37.65-.33,1-.42.65-.23.7-.23.7-.19,1.77-.33.7-.14,2.33-.28,1.49-.09,1.4.09,1.12.05.79.09.79.14.8.19.79.14.75.19.69.18.7.24,1,.37.66.28,1.53.88.61.42.61.47.79.74.51.47.51.51.42.56.66.89.37.6.33.61.37.61.51.93.37.61.33.69.23.66.24,1.07.28,1.4.09.79.14.79.09,1.59ZM177.41,199l0,.51-.14.33-.28.23-.51.14h-1l-1.4-.19-.74,0h-3l-5.32.18-2.09-.14h-1l-.47.14-.18.33-.05.65-.09,4.15,0,.51,0,.28.23.19.56.14h1.21l1.59-.14.75-.05,2.79.1h3.55l.69,0,1.78-.14h1.12l.51.09.28.24.18.37.1.56,0,.37,0,.7-.09,1.4v.7l0,1.07,0,.7,0,.75-.09.56-.14.37-.24.18-.55.14h-1.12l-1.73-.23-.74,0-2.8.1h-.75l-5-.1-.7,0-.65.09-.47.14-.19.28v.61l0,2.66v.74L161,221.2V222l.05,1-.05.75-.05.79,0,.56-.14.28-.28.14-.51.1-.8.09-.74,0-1.73,0H156l-1.92.14-1.39-.09-.52-.1-.28-.18-.09-.33,0-.51-.14-2.47-.05-.75,0-2.47,0-.75.19-2.47,0-.74-.14-2.47v-.75l-.14-2.52v-.74l.1-2.47v-4l.09-2.47v-4l.09-2.47,0-.56.09-.32.28-.14.47-.1h1l1.77.14h.75L159,192h.75l2.7.14h.74l2.76-.14.74,0,2.75.14h.75l2.75-.14h.74l1.17,0,.75,0,.79.09.51.05.28.14.19.28,0,.51,0,.42v.7l-.09,1.4v.74l.09,1.12.05.75Z" transform="translate(-1.55)" style="fill: #2d4656"/>
      <polygon points="135.44 206.94 135.16 205.54 134.97 204.89 134.46 203.86 134.08 203.26 133.43 202.42 132.97 201.91 132.27 201.16 131.75 200.74 130.54 200.04 129.89 199.76 129.14 199.53 128.4 199.39 126.91 199.29 126.21 199.34 125.18 199.39 124.48 199.53 123.27 199.85 122.52 200.13 121.45 200.69 120.8 201.11 120.05 201.76 119.54 202.32 119.03 203.02 118.66 203.63 118.52 203.91 118.09 204.89 117.86 205.59 117.72 205.91 117.58 206.57 117.49 207.22 117.44 207.87 117.4 208.57 117.4 209.27 117.44 210.02 117.58 210.76 117.63 211.18 117.81 211.88 117.91 212.21 118.14 212.86 118.33 213.23 118.7 213.88 118.93 214.26 119.45 214.91 119.73 215.24 120.29 215.8 121.22 216.59 121.87 217.01 122.62 217.38 123.32 217.66 124.3 217.99 124.99 218.13 126.16 218.27 126.95 218.31 128.12 218.22 128.86 218.13 129.89 217.89 130.54 217.61 131.57 216.96 132.13 216.54 132.87 215.8 133.34 215.28 133.94 214.54 134.36 213.88 134.83 212.86 135.11 212.16 135.34 211.09 135.44 210.39 135.53 209.27 135.53 208.48 135.48 207.69 135.44 206.94" style="fill: #2d4656"/>
    </g>
    <g>
      <path d="M63.59,308.16l-.6.61L61.62,310l-.92.68-1.44,1.07-.92.61-1.52.83-1,.54-1.75.83-1.14.38-1.3.39-1.29.22-1.9.38-2.67.31-1.37.07-1.9.16h-4l-1.29-.08L36,316.23l-1.3-.23-1.29-.3-1.14-.38-3.43-.92-1.67-.61-1-.45-1.45-.84-.91-.69-1-.68-1.07-.69-2-1.67-.91-.91-.84-1-.83-1.15-.69-1.06-.61-1.07-.53-1.06-.76-1.6-1.14-3.2-.54-1.52-.76-2.28L12,292.79,11.91,291l.08-1.14.08-1.22v-1.29l.15-2.59.07-1.21.23-1.15.31-1.67.3-1.14.38-1.14.38-1.07.54-1.52.53-1.07.53-1.14.61-1.14.69-1.14.68-1.07.76-1,.84-1.06.91-1,.92-.84,1-.84.92-.76,2.43-1.67,1-.61,1.07-.61,2.28-1.07,1.3-.45,1.21-.38,2.59-.61,1.3-.23,1.29-.15,2.36-.16,1.67-.15,1.14.08,1.68.07,2.82.39,1.06.22,1.75.31,2.67.76,1.06.46,1.68,1,1.06.6,2,1.37,2.36,1.68.84.61.45.38.54.53.15.61-.08.61L62,269l-.69.84-.84.83-.83.76-.84.69L58,273l-1.29,1.52-.84.91-.38.38-.68.61-.54.23-.53.08-.53-.16-.84-.45-1.45-1.07-1-.53-1.67-.76-1.07-.38-1.67-.46-1.14-.23-1.91-.15H41.22l-1.68.15-1.21.31-1.68.53-1.14.46-1,.38-1.52.76-1.07.76-.53.46-.91,1-.69,1.06-.53,1-.54,1.07-.45,1.14-.38,1.21-.23,1.3-.15,1.14-.16,2.28v1.22l.08,1.9.08,1.15.38,1.75.38,1.14.53,1.29.61,1.14,1.14,1.68.84.91,1.44,1.22,1,.68,1.53.77,1.14.45,1.67.46,1.22.23,1.83.07H43l1.06-.22.61-.16,1.14-.38,1.91-.68,1.21-.54,1.15-.53,1-.53,1.44-.91,1-.77.76-.53.46-.15.68.15.84.53.84.77.3.45.76.84,1.22,1.52.76.92,2.06,2.35.68.92.38.38.38.68Z" transform="translate(-1.55)" style="fill: #2d4656"/>
      <path d="M136.66,287l-.07,1.22-.16,1.75-.15,1.14-.46,2.28-.15,1.75-.15,1.15-.23,1.21-.3,1.15-.76,1.59-.54,1.07-2.05,3.43-.69,1-.76,1-.76.84-1.22,1.3-.83.76-1,.76-.92.68-1.37.92-1,.61-1.14.6-1.06.46-1.53.61-1.14.3-2.43.77-1.3.38-1.22.3-1.29.3-1.29.23-1.3.08H105.3l-2.59-.15-2.51-.31-1.06-.23-1.14-.3-4.11-1.37-1.22-.38-1.3-.53-2.43-1.07-1.14-.61L86.65,311l-1-.76-1-.84-.92-1-.83-1-2.06-2.06-.76-.91-.76-1-.61-1-.61-1.52L77,297.5l-.46-1.59-.23-1.15-.22-1.21-.23-1.15-.23-1.67-.08-1.14-.07-1.3V287l.07-1.29.08-1.37.15-1.3.23-1.29.3-1.29.38-1.3.38-1.14.46-1.22.53-1.75.54-1.22.3-.68L79.5,272l1.07-1.68.76-1.06.38-.61.91-.92,1.3-1.06,1-.76,1-.69,2.29-1.52,1-.61,1.06-.61L91.3,262l1.6-.69,1.06-.38,1.14-.38,1.15-.3,2.89-.53,1.14-.23,3.8-.46,2.44-.15,2.28.15,1.83.08,1.29.15,1.3.23,1.29.3,1.3.23,1.21.3,1.15.31,1.14.38,1.6.61L122,262l2.51,1.44,1,.69,1,.76,1.3,1.22.83.76.84.83.69.92,1.06,1.44.61,1,.53,1,.61,1,.84,1.52.61,1,.53,1.15.38,1.06.38,1.75.46,2.29.15,1.29.23,1.29Zm-18.57,9.9.68-1.07.77-1.67L120,293l.38-1.75.16-1.14.15-1.83V287l-.08-1.29-.07-1.22-.46-2.28-.31-1.07-.83-1.67-.61-1-1.07-1.37-.76-.84-1.14-1.22-.84-.68-2-1.15-1.06-.45-1.22-.38-1.22-.23L106.6,272l-1.15.07-1.67.08-1.14.23-2,.53-1.22.46-1.75.91-1.06.69L95.41,276l-.84.91-.84,1.15-.61,1-.22.45-.69,1.6-.38,1.14-.23.53-.23,1.07L91.22,285,91.15,286l-.08,1.14v1.14l.08,1.22.22,1.22.08.69.3,1.14.16.53.38,1.07.3.6.61,1.07.38.61.84,1.06.46.54.91.91,1.52,1.29,1.07.69,1.21.61,1.15.46,1.59.53,1.15.23,1.9.22,1.29.08,1.91-.15,1.21-.15,1.68-.38,1.06-.46,1.68-1.07.91-.68,1.22-1.22.76-.84Z" transform="translate(-1.55)" style="fill: #2d4656"/>
      <path d="M210.72,287l-.08,1.22-.15,1.75-.15,1.14-.46,2.28-.15,1.75-.15,1.15-.23,1.21-.31,1.15-.76,1.59-.53,1.07-2.06,3.43-.68,1-.76,1-.76.84-1.22,1.3-.84.76-1,.76-.91.68-1.37.92-1,.61-1.14.6-1.07.46-1.52.61-1.14.3-2.44.77-1.29.38-1.22.3-1.29.3-1.3.23-1.29.08h-4.11l-2.59-.15-2.51-.31-1.07-.23-1.14-.3-4.11-1.37-1.22-.38-1.29-.53L163,312.27l-1.15-.61-1.14-.68-1-.76-1-.84-.91-1-.84-1-2-2.06-.76-.91-.77-1-.6-1-.61-1.52L151,297.5l-.45-1.59-.23-1.15-.23-1.21-.23-1.15-.23-1.67-.07-1.14-.08-1.3V287l.08-1.29.07-1.37.16-1.3.23-1.29.3-1.29.38-1.3.38-1.14.46-1.22.53-1.75.53-1.22.31-.68.61-1.14,1.06-1.68.76-1.06.38-.61.92-.92,1.29-1.06,1-.76,1-.69,2.28-1.52,1-.61,1.07-.61,1.06-.53,1.6-.69,1.07-.38,1.14-.38,1.14-.3,2.89-.53,1.15-.23,3.8-.46,2.44-.15,2.28.15,1.83.08,1.29.15,1.29.23,1.3.3,1.29.23,1.22.3,1.14.31,1.14.38,1.6.61L196,262l2.51,1.44,1,.69,1,.76,1.29,1.22.84.76.84.83.68.92,1.07,1.44.61,1,.53,1,.61,1,.83,1.52.61,1,.54,1.15.38,1.06.38,1.75.45,2.29.16,1.29.22,1.29Zm-18.57,9.9.68-1.07.76-1.67.46-1.15.38-1.75.15-1.14.15-1.83V287l-.07-1.29-.08-1.22-.45-2.28-.31-1.07-.84-1.67-.61-1-1.06-1.37-.76-.84-1.14-1.22-.84-.68-2-1.15-1.07-.45-1.21-.38-1.22-.23-2.44-.15-1.14.07-1.67.08-1.14.23-2,.53-1.22.46-1.75.91-1.07.69L169.47,276l-.84.91-.84,1.15-.61,1-.23.45-.68,1.6-.38,1.14-.23.53-.23,1.07-.15,1.07L165.2,286l-.07,1.14v1.14l.07,1.22.23,1.22.08.69.3,1.14.15.53.38,1.07.31.6.61,1.07.38.61.84,1.06.45.54.92.91,1.52,1.29,1.06.69,1.22.61,1.14.46,1.6.53,1.14.23,1.9.22,1.3.08,1.9-.15,1.22-.15,1.67-.38,1.07-.46,1.67-1.07.92-.68L190.4,299l.76-.84Z" transform="translate(-1.55)" style="fill: #2d4656"/>
      <path d="M276,313.56l.38.69-.23.38-.23.46-.53.3h-1l-4.11-.3h-1.22L264.3,315h-1.22l-4.87.23-.91-.08-.69-.53-2.66-3-.69-.91-2.36-3.35-.68-.84-3-3-.76-.91-2.51-3-.61-.84-.38-.68-.53-.23-.46.31-.15,1v5.26l-.16,4.11v1.22l.08,1.82v1.14l-.08,1.15-.07.76-.38.3-.92.15-2.36.16H235.6l-3.5-.31-1.21.08-3.81.3-.61-.23-.3-.45-.08-.69L226,313v-1.22l.08-1.9.08-1.3-.31-4.11V299.1l.08-1.22.23-4.18.07-1.22v-5.33l-.15-4.11v-1.21l.15-4.19v-1.22l-.15-9.44v-1.21l.23-4.11.07-.92.23-.38.76-.15,1.15.07,2.36.23h1.21l3.5-.3h1.22l3.5.23.84.07.38.23.23.61.08.76-.08,1-.23,2.51-.07,1.22.22,4v1.21l.08,4,.15.83.61.16.84-.54,2.36-3.27,4.11-4.95,2.36-3.27.76-.91,2.66-3.05.61-.61.76-.15,3.5-.23h1.22l4.64.31,2.9.07h1.21l2.9-.07.83.07.38.31.16.15-.08.23-.61.68-2.89,3.2-.76.91-2.67,3.5-.76.92-3,3.27-.76.91-2.81,3.35-.76.92-2.74,3.35-.84.91-1.9,1.75-.84.91-.38.46-.38.61.15.45.53.69,2.82,3.73.84.91,3.34,3.35.77.92,3,3.65.77.91,3.12,3.5.76.92,3.27,3.42.76.92Z" transform="translate(-1.55)" style="fill: #2d4656"/>
    </g>
    <g>
      <path d="M81.71,376.3v1.22l-.31,4.11v1.21L81.33,387v.84l-.23.38-.61.23-1.06.07-3.89-.07H70.82l-3.8-.31-.46-.15-.23-.23V387l-.15-1.9v-1.22l-.07-1.14v-1.14l-.23-4.11L66,376.3l.23-4.11.08-1.22L66,366.79v-1.22L66,361.46v-6.55l-.07-4.18v-1.22L66,345.4v-6.55l-.15-4.18.23-.84.46-.31.76-.07h.61l1.14-.08,1.82.08H72l3.5-.15h4.72l.84.15.15.46.08.83.15,2,.08,1.22v7.46l.07,4.11v1.22l-.07,4.18v1.22l.07,4.11v1.22l-.15,4.11v6.62Z" transform="translate(-1.55)" style="fill: #2d4656"/>
      <path d="M151.43,345.4l-.08,1.22v11.26l.23,4.42v1.21l.15,10.05v1.29l-.08.61-.07,1.3-.23,3.65.08,4.41-.08,1.07-.3.91-.61.84-.76.53-.69.23-1.06.08-3.89.15-1.21.08-1.91.07h-1.21l-1-.23-.92-.38-.91-.68-.69-1-1.14-2.21-.68-1-3-3.73-.76-.91-3-3.65-.69-1-2.66-4-.68-.91-3-3.66-.76-.91-2.82-3.73-.69-.61-.53.23-.23.91-.15,3.81v1.22l.08,3.8v1.22l.07,4.26v1.22l-.22,4.26.07,1.22.46,3,.07,1.22-.22,1-.54.53-.53.16-.91.15-.61.07-1.3.08-3.5-.08H107.2l-3.12.16h-1.21l-1.14-.08-.84-.15-.61-.38-.31-.54-.15-.76-.07-.53v-1.14l.15-2.51.07-1.22-.22-4v-1.21l.15-9.29.07-1.22.23-4,.08-1.22v-5.25l-.31-4v-1.22l.31-4-.08-1.21-.3-4.11-.08-1.22v-1.75l.08-1.14.15-1.14.15-.84.23-.53.46-.23.84-.16,2.28-.15,2.28.15H112l.91.08.38.31.46.68L117,338l.76.91,2.82,3.65.76.91,2.81,3.73.76.92,2.74,3.8.69.92,2.89,3.65.76.91,2.74,3.81.61.53.61.08.53-.38v-.84l-.53-3.2-.08-1.21.23-3.28v-1.22l-.3-4.64v-1.22l.3-4.64L136,340l-.23-2.81v-1.9l.23-1,.3-.61.53-.31.92-.15h.68l1.3-.08,3.42.23h1.22l2.59-.15,1.14.08,1.75.07.84.15.53.23.45.54.16,1.06.07.69.08,1.29-.15,2.36-.16,1.22Z" transform="translate(-1.55)" style="fill: #2d4656"/>
      <path d="M221.68,357.2l.07,1.29-.3,4.95v7.15l-.15,3.2v4.49l-.08.84-.45.76-.61,1-.69,1-1.29,1.29-.92.84-.45.45-1,.69-.54.3-1,.61-1.53.76-1.14.46-1.06.38-1.75.53-1.15.31-1.21.23-1.15.22-1.75.23-1.06.15-1.14.23-3.05.38-1.14.08-2.36-.15-1.75-.15-1.22-.16-1.22-.23-1.14-.3-2.66-.76-1.14-.31-1.14-.38L183,387l-1-.53-1.52-.84-.91-.68-1-.69-.92-.76-.91-.69-.84-.76-1.21-1.21L174,380l-.84-1.14-.69-1.06-1.9-3.43L170,373.1l-.53-1.14-.38-1.22-.39-1.29-.22-1.22-.23-1.29-.15-1.22-.31-1.67-.15-1.22-.08-1.14v-1.15l.23-3.42.15-.61.23-1.29.31-1.3.38-1.22.38-1.29.38-1.22.38-1.14.53-1.22.53-1.29.54-1.07,1-1.37.68-.91.84-1,.84-.91.91-.84,2-1.67,1-.76.91-.69.91-.61,2.52-1.44,1.14-.69,1.29-.53,1.3-.38,1.21-.31,2.82-.45,2.21-.31,1.14-.23,1.14-.15,1.75-.15,1.22-.08,1.67.15,1.14.08,1.75.23,1.07.23,1.67.3,1.15.31,1.67.53,1.14.38,2.74,1.37,1.14.68,1,.69.38.23.84.53.84.61.38.38.84.61.45.38.46.53v.53l-.23.54L218,342l-.69,1-.76.84-2.13,2.13-1.37,1.22-.92.76-.83.61-.61.45-.46.31-.61.08-.83-.54-1-.68-1-.61-1.07-.61-1.22-.53-1.22-.46-1.29-.3-1.29-.23-3.58-.23h-.53l-1.22.08-2,.15-1.22.3-2.28,1.07-1,.68-1,.76-.84.84-.76,1-.68,1-.61,1.07-.46,1.14-.38,1.22-.3,1.14-.46,2.28-.23,1.22-.07,1.29v1.3l.15,1.82.23,1.22.38,1.75.38,1.22.76,1.83.53,1.06.91,1.37.77.91,1.37,1.3,1,.76,1.52.84,1.14.45,2.28.54,1.3.15,1.29.07h1.22l1.22-.15,1.14-.23,4.11-1,1.21-.45,1.15-.53.76-.54.23-.45v-.84l.07-.69V371l-.15-2.28v-1.3l-.3-.45-.84-.15h-1.83l-1.22.07-1.75.23-1.21.08h-1.76l-1.21-.08-2.59-.46-.46-.15-.3-.38-.15-.91-.08-.61-.08-1.22.08-1.9-.15-2.29-.15-1.14v-1.6l.22-.83.38-.38.92-.16,1.9-.22,1.29-.08h3.51l4.94-.23,6.09.38h1.22l3.12-.38,1.22-.07.61.07,1.14.23.53.3.15.46.23,1.07Z" transform="translate(-1.55)" style="fill: #2d4656"/>
    </g>
  </g>
</svg>
